<svg xmlns="http://www.w3.org/2000/svg" xmlns:xlink="http://www.w3.org/1999/xlink" xmlns:lucid="lucid" width="1716.76" height="1270"><g transform="translate(500 190)" lucid:page-tab-id="0_0"><path d="M560 480h60v20h-60z" fill="none"/><use xlink:href="#a" transform="matrix(1,0,0,1,560,480) translate(11.777777777777782 14.222222222222221)"/><path d="M220 86a6 6 0 0 1 6-6h514.3a6 6 0 0 1 6 6v568a6 6 0 0 1-6 6H226a6 6 0 0 1-6-6z" stroke="#5e5e5e" stroke-width="3" fill="#fff"/><use xlink:href="#b" transform="matrix(1,0,0,1,232,92) translate(150.4814814814815 17.77777777777778)"/><use xlink:href="#c" transform="matrix(1,0,0,1,232,92) translate(169 17.77777777777778)"/><use xlink:href="#d" transform="matrix(1,0,0,1,232,92) translate(244.2469135802469 17.77777777777778)"/><use xlink:href="#e" transform="matrix(1,0,0,1,232,92) translate(208.35185185185185 44.44444444444444)"/><path d="M892.2 507.25a6 6 0 0 1 6-6h228a6 6 0 0 1 6 6v128a6 6 0 0 1-6 6h-228a6 6 0 0 1-6-6z" stroke="#5e5e5e" stroke-width="3" fill="#fff"/><use xlink:href="#f" transform="matrix(1,0,0,1,904.1940659620242,513.249700282002) translate(51.919753086419746 17.77777777777778)"/><use xlink:href="#g" transform="matrix(1,0,0,1,904.1940659620242,513.249700282002) translate(151.73456790123458 17.77777777777778)"/><path d="M889.75 570.23l-.04 2-19.86-.37v-2zm-121.05-5.68v2l-19.92-.37.03-2z" stroke="#c92d39" stroke-width=".05" fill="#c92d39"/><path d="M748.84 564.18l-.04 2-1-.02v-2z" fill="#c92d39"/><path d="M748.87 564.16l-.04 2.05h-1.06v-2.06zm-1.05 1.98l.96.02.04-1.95h-1z" stroke="#c92d39" stroke-width=".05" fill="#c92d39"/><path d="M890.73 570.25v2h-1.02v-2z" fill="#c92d39"/><path d="M890.76 570.22v2.05h-1.08v-2.05zm-1.03 2h.98v-1.95h-.97z" stroke="#c92d39" stroke-width=".05" fill="#c92d39"/><use xlink:href="#h" transform="matrix(1,0,0,1,768.7002800231711,557.4730391975445) translate(0 14.222222222222223)"/><use xlink:href="#i" transform="matrix(1,0,0,1,768.7002800231711,557.4730391975445) translate(50.8641975308642 14.222222222222223)"/><path d="M794.2 636.9l-3.6.7-8.34 1.23-9.33.97-11.1.7-13.03.25-.04-2 13-.25 11-.7 9.25-.96 8.26-1.2 3.93-.76zm95.58-16.13l-13 .26-11 .7-9.25.95-8.25 1.22-3.87.74v-2.04l3.54-.67 8.34-1.23 9.32-.98 11.1-.7 13.04-.25z" stroke="#0c7cba" stroke-width=".05" fill="#0c7cba"/><path d="M748.83 640.75l-1.05.03v-2l1-.03z" fill="#0c7cba"/><path d="M748.85 640.78l-1.1.02v-2.05l1.06-.02zm-1.05-1.98v1.95l1-.02-.04-1.95z" stroke="#0c7cba" stroke-width=".05" fill="#0c7cba"/><path d="M890.76 620.75h-1.03v-2h1.03z" fill="#0c7cba"/><path d="M890.78 620.78h-1.07v-2.05h1.08zm-1.02-2v1.95h.97v-1.95z" stroke="#0c7cba" stroke-width=".05" fill="#0c7cba"/><use xlink:href="#j" transform="matrix(1,0,0,1,794.1864122025311,619.2094348762095) translate(0 14.222222222222223)"/><path d="M892.2 729.5a6 6 0 0 1 6-6h228a6 6 0 0 1 6 6v128a6 6 0 0 1-6 6h-228a6 6 0 0 1-6-6z" stroke="#5e5e5e" stroke-width="3" fill="#fff"/><use xlink:href="#k" transform="matrix(1,0,0,1,904.1940659620243,735.5065098958062) translate(108 84.68657777777779)"/><use xlink:href="#l" transform="matrix(1,0,0,1,904.1940659620243,735.5065098958062) translate(50.09876543209876 111.35324444444444)"/><use xlink:href="#m" transform="matrix(1,0,0,1,904.1940659620243,735.5065098958062) translate(149.91358024691357 111.35324444444444)"/><path d="M848.7 741.65l41 .25v2l-41.04-.25-3.6-.15v-2zm-147.4-76.38l.23 3.54.35 3.32.46 3.1.56 2.94.65 2.77.73 2.64.82 2.52.9 2.4.97 2.32 1.06 2.24 1.14 2.18 1.22 2.1 1.3 2.07 1.4 2.03 1.5 1.98 1.6 1.95 1.74 1.93 1.86 1.9 2 1.9 2.2 1.86 2.35 1.88 2.58 1.87 2.82 1.86 3.1 1.87 3.42 1.9 3.82 1.88 4.26 1.9 4.83 1.92 5.48 1.9 6.34 1.92 7.4 1.9 8.78 1.85 10.66 1.8 4.98.6v2.03l-5.27-.66-10.75-1.8-8.86-1.9-7.48-1.9-6.4-1.94-5.6-1.94-4.9-1.95-4.34-1.93-3.9-1.93-3.5-1.93-3.17-1.92-2.88-1.92-2.66-1.92-2.42-1.9-2.24-1.95-2.08-1.94-1.92-1.95-1.8-2-1.65-2-1.55-2.05-1.45-2.08-1.36-2.13-1.26-2.2-1.16-2.25-1.1-2.3-1-2.4-.93-2.5-.83-2.6-.76-2.72-.66-2.86-.57-3-.48-3.2-.36-3.4-.23-3.62-.05-2.88 2-.04z" stroke="#0c7cba" stroke-width=".05" fill="#0c7cba"/><path d="M701.25 662.45l-2 .04-.02-1.05h2z" fill="#0c7cba"/><path d="M701.28 662.48l-2.05.04-.03-1.1h2.06zm-2.02-1l.02 1 1.95-.05-.02-.96z" stroke="#0c7cba" stroke-width=".05" fill="#0c7cba"/><path d="M890.7 741.9v2h-1.03v-2z" fill="#0c7cba"/><path d="M890.73 741.88v2.05h-1.1l.03-2.05zm-1.03 2h.98v-1.95h-.97z" stroke="#0c7cba" stroke-width=".05" fill="#0c7cba"/><use xlink:href="#j" transform="matrix(1,0,0,1,794.8371718557363,730.7896035566976) translate(0 14.222222222222223)"/><path d="M889.74 792.5l-.02 2-32.97-.3v-2zM564.96 664.72l.26 6.18.48 5.73.67 5.36.85 5.02 1 4.74 1.16 4.48 1.3 4.27 1.4 4.1 1.55 3.9 1.68 3.76 1.8 3.63 1.94 3.5 2.07 3.42 2.23 3.34 2.37 3.26 2.53 3.2 2.72 3.15 2.92 3.1 3.14 3.07 3.4 3.05 3.65 3.02 3.98 3 4.33 3.03 4.75 3 5.23 3.02 5.8 3.02 6.43 3.02 7.23 3.04 8.18 3.04 9.37 3.04 10.84 3.02 12.73 2.98 15.26 2.9 18.77 2.76 24.14 2.5 14.52.9v2l-14.68-.9-24.2-2.5-18.88-2.8-15.35-2.9-12.8-3-10.93-3.05-9.44-3.06-8.27-3.08-7.3-3.07-6.53-3.07-5.86-3.06-5.3-3.05-4.8-3.06-4.42-3.05-4.04-3.06-3.7-3.1-3.46-3.1-3.2-3.13-2.97-3.17-2.78-3.2-2.6-3.27-2.4-3.33-2.28-3.4-2.1-3.5-1.98-3.6-1.84-3.7-1.7-3.83-1.6-3.98-1.43-4.17-1.32-4.35-1.17-4.57-1.02-4.8-.87-5.12-.7-5.44-.48-5.82-.26-6.25-.02-2.3 2-.03z" stroke="#c92d39" stroke-width=".05" fill="#c92d39"/><path d="M890.73 792.5v2h-1.04v-2z" fill="#c92d39"/><path d="M890.76 792.48v2.05h-1.1l.02-2.06zm-1.04 2h1v-1.95h-1z" stroke="#c92d39" stroke-width=".05" fill="#c92d39"/><path d="M564.94 662.47l-2 .02v-1.05h2z" fill="#c92d39"/><path d="M564.96 662.5h-2.05v-1.07h2.05zm-2-1.02v.98l1.95-.02v-.96z" stroke="#c92d39" stroke-width=".05" fill="#c92d39"/><use xlink:href="#h" transform="matrix(1,0,0,1,755.6187712203455,782.0968820508718) translate(0 14.222222222222223)"/><use xlink:href="#i" transform="matrix(1,0,0,1,755.6187712203455,782.0968820508718) translate(50.8641975308642 14.222222222222223)"/><path d="M1012.2 721.04V643.7" stroke="#5e5e5e" stroke-width="2" fill="none"/><path d="M1013.2 722.04h-2v-1.02h2zM1013.2 643.74h-2v-1.03h2z" stroke="#5e5e5e" stroke-width=".05" fill="#5e5e5e"/><path d="M580 617.33a6 6 0 0 1 6-6h154.3a6 6 0 0 1 6 6V654a6 6 0 0 1-6 6H586a6 6 0 0 1-6-6z" fill="#b2d6ef"/><path d="M595.93 611.4h9.3m6.22 0h9.32m6.2 0l9.32-.02m6.2 0h9.32m6.2 0h9.32m6.2 0l9.33-.02m6.2 0h9.32m6.2 0h9.3m6.22-.02h9.32m6.2 0h4.67l.94.07.92.23.87.36.8.48.72.6.6.73.5.8.36.88.23.9v3.78m.02 5v7.53m.02 5l.02 7.53m0 5V654l-.07.94-.22.9-.35.88-.5.8-.6.72-.72.6-.8.5-.87.37-.92.23h-4.65m-6.22 0h-9.32m-6.2 0h-9.32m-6.2.02H690m-6.2 0h-9.3m-6.22 0l-9.32.02m-6.2 0h-9.32m-6.2 0h-9.32m-6.2 0l-9.33.02m-6.22 0h-9.3m-6.22 0H586l-.94-.07-.9-.22-.88-.35-.8-.5-.72-.6-.6-.72-.5-.8-.37-.88-.23-.9v-3.77m0-5.02l-.03-7.52m0-5l-.02-7.53m0-5l-.02-3.77.07-.94.22-.92.35-.87.5-.8.6-.7.72-.62.8-.5.88-.35.9-.22h4.67" stroke="#5e5e5e" stroke-width="3" fill="none"/><use xlink:href="#n" transform="matrix(1,0,0,1,592,623.3333333333334) translate(6.438271604938279 17.77777777777778)"/><use xlink:href="#o" transform="matrix(1,0,0,1,592,623.3333333333334) translate(74.95679012345678 17.77777777777778)"/><path d="M892.2 731a6 6 0 0 1 6-6h154.3a6 6 0 0 1 6 6v36.67a6 6 0 0 1-6 6H898.2a6 6 0 0 1-6-6z" fill="#b2d6ef"/><path d="M908.12 725.08h9.32m6.2 0l9.32-.02m6.2 0h9.33m6.2 0h9.3m6.22 0l9.32-.02m6.2 0h9.32m6.2 0h9.32m6.2-.02h9.33m6.22 0h9.3m6.22 0h4.66l.94.06.9.22.88.36.8.5.72.6.6.72.5.8.37.87.23.92v3.76m0 5l.03 7.53m0 5.02l.02 7.52m0 5l.02 3.77-.07.94-.22.93-.35.87-.5.8-.6.72-.72.6-.8.5-.88.36-.9.22h-4.67m-6.2 0h-9.32m-6.2 0l-9.33.02m-6.2 0h-9.32m-6.2 0h-9.32m-6.2 0l-9.32.02m-6.2 0h-9.33m-6.2 0h-9.32m-6.2.02h-9.3m-6.22 0h-9.32m-6.2 0h-4.67l-.94-.06-.92-.22-.87-.36-.8-.5-.72-.6-.6-.72-.5-.8-.36-.87-.23-.92v-3.75m-.02-5v-7.53m-.02-5.02l-.02-7.52m0-5V731l.07-.93.22-.92.35-.87.5-.8.6-.72.72-.6.8-.5.87-.36.92-.22h4.65" stroke="#5e5e5e" stroke-width="3" fill="none"/><use xlink:href="#n" transform="matrix(1,0,0,1,904.1940659620241,737.0065098958063) translate(11.376543209876552 17.77777777777778)"/><use xlink:href="#p" transform="matrix(1,0,0,1,904.1940659620241,737.0065098958063) translate(79.89506172839506 17.77777777777778)"/><path d="M892.2 598.58a6 6 0 0 1 6-6h154.3a6 6 0 0 1 6 6v36.67a6 6 0 0 1-6 6H898.2a6 6 0 0 1-6-6z" fill="#b2d6ef"/><path d="M908.12 592.65h9.32m6.2 0h9.32m6.2 0l9.33-.02m6.2 0h9.3m6.22 0h9.32m6.2-.02h9.32m6.2 0h9.32m6.2 0h9.33m6.22 0h9.3m6.22 0l4.66-.02.94.08.9.22.88.36.8.5.72.6.6.72.5.8.37.87.23.9v3.77m0 5.02l.03 7.52m0 5l.02 7.54m0 5l.02 3.77-.07.94-.22.9-.35.87-.5.8-.6.72-.72.6-.8.5-.88.36-.9.22h-4.67m-6.2 0h-9.32m-6.2 0h-9.33m-6.2.02h-9.32m-6.2 0h-9.32m-6.2 0h-9.32m-6.2.02h-9.33m-6.2 0h-9.32m-6.2 0l-9.3.02m-6.22 0h-9.32m-6.2 0h-4.67l-.94-.06-.92-.22-.87-.36-.8-.5-.72-.6-.6-.72-.5-.8-.36-.88-.23-.9v-3.77m-.02-5.02v-7.5m-.02-5.02l-.02-7.52m0-5.02v-3.76l.07-.94.22-.9.35-.88.5-.8.6-.72.72-.6.8-.5.87-.36.92-.22h4.65" stroke="#5e5e5e" stroke-width="3" fill="none"/><use xlink:href="#n" transform="matrix(1,0,0,1,904.1940659620243,604.5830336153356) translate(11.376543209876552 17.77777777777778)"/><use xlink:href="#p" transform="matrix(1,0,0,1,904.1940659620243,604.5830336153356) translate(79.89506172839506 17.77777777777778)"/><path d="M1136.76 520h60v20h-60z" fill="none"/><use xlink:href="#a" transform="matrix(1,0,0,1,1136.7619671965922,520) translate(11.777777777777782 14.222222222222221)"/><path d="M1136.76 621.25h60v20h-60z" fill="none"/><use xlink:href="#q" transform="matrix(1,0,0,1,1136.7619671965922,621.2497002820022) translate(11.777777777777782 14.222222222222221)"/><path d="M1136.76 730.07h60v1h-60z" fill="none"/><use xlink:href="#a" transform="matrix(1,0,0,1,1136.761967196593,730.0699730446722) translate(11.777777777777782 14.222222222222221)"/><path d="M1144.48 821.9h44.57v31.32h-44.57z" fill="#fff" fill-opacity="0"/><use xlink:href="#q" transform="matrix(1,0,0,1,1149.478016579309,826.8902458073422) translate(0 14.222222222222221)"/><path d="M1134.7 635.05l.22.02.58.1.56.13.54.17.54.2.53.25.54.3.55.34.55.4.57.48.58.56.6.67.66.8.7 1 .72 1.22.8 1.53.85 2 .93 2.64 1.02 3.65 1.1 5.25 1.12 8.08 1 13.87.25 31.48-.45 16.36-.48 1.22-.5.66-.6.46-.97.4-3.04.3-9.54-.23" stroke="#ef8d22" stroke-width="2" stroke-linejoin="round" fill="none"/><path d="M1134.75 634.03l-.06 2-1.06-.04.05-.7V634zM1134.67 728.37l-.05 2-1-.02v-2.01z" stroke="#ef8d22" stroke-width=".05" fill="#ef8d22"/><path d="M260 487.33a6 6 0 0 1 6-6h168a6 6 0 0 1 6 6v65.34a6 6 0 0 1-6 6H266a6 6 0 0 1-6-6z" stroke="#5e5e5e" stroke-width="3" fill="#c7e8ac"/><use xlink:href="#r" transform="matrix(1,0,0,1,272,493.3333333333333) translate(13.21604938271605 17.77777777777778)"/><use xlink:href="#s" transform="matrix(1,0,0,1,272,493.3333333333333) translate(106.98148148148148 17.77777777777778)"/><use xlink:href="#t" transform="matrix(1,0,0,1,272,493.3333333333333) translate(61.95061728395062 44.44444444444444)"/><path d="M260 577.33a6 6 0 0 1 6-6h168a6 6 0 0 1 6 6v65.34a6 6 0 0 1-6 6H266a6 6 0 0 1-6-6z" stroke="#5e5e5e" stroke-width="3" fill="#83bbe5"/><use xlink:href="#u" transform="matrix(1,0,0,1,272,583.3333333333334) translate(20.037037037037038 17.77777777777778)"/><use xlink:href="#v" transform="matrix(1,0,0,1,272,583.3333333333334) translate(100.1604938271605 17.77777777777778)"/><use xlink:href="#w" transform="matrix(1,0,0,1,272,583.3333333333334) translate(61.3641975308642 44.44444444444444)"/><path d="M260 246a6 6 0 0 1 6-6h168a6 6 0 0 1 6 6v48a6 6 0 0 1-6 6H266a6 6 0 0 1-6-6z" stroke="#5e5e5e" stroke-width="3" fill="#ffdba9"/><use xlink:href="#x" transform="matrix(1,0,0,1,272,252) translate(4.018518518518519 22.27777777777778)"/><path d="M260 326a6 6 0 0 1 6-6h228a6 6 0 0 1 6 6v48a6 6 0 0 1-6 6H266a6 6 0 0 1-6-6z" stroke="#5e5e5e" stroke-width="3" fill="#ffdba9"/><use xlink:href="#y" transform="matrix(1,0,0,1,272,332) translate(-9.09876543209873 22.944444444444443)"/><path d="M-198.5 76a6 6 0 0 1 6-6h248a6 6 0 0 1 6 6v368a6 6 0 0 1-6 6h-248a6 6 0 0 1-6-6z" stroke="#000" stroke-width="3" fill="#ffeca9"/><use xlink:href="#z" transform="matrix(1,0,0,1,-186.5,82) translate(74.88271604938272 17.77777777777778)"/><use xlink:href="#A" transform="matrix(1,0,0,1,-186.5,82) translate(114.32716049382717 17.77777777777778)"/><path d="M1134.63 516.33l3.83-.1 3.32-.32 2.4-.37 1.8-.4 1.38-.4 1.1-.4.9-.38.72-.37.6-.37.53-.34.46-.35.38-.32.33-.34.3-.33.25-.32.22-.34.2-.34.18-.34.15-.36.13-.36.1-.4.1-.4.06-.4.04-.47v-1.02l-.07-.6-.1-.64-.18-.74-.26-.85-.37-.98-.53-1.2-.75-1.43-1.1-1.82-1.63-2.34-2.52-3.18-4.14-4.6-7.44-7.24-16.2-13.87-39.12-30.14-31.13-24.73-21.25-18.76-52.58-51.46-3.42-3.64-3.02-3.65-2.68-3.7-2.42-3.84-2.18-4-2-4.27-1.82-4.7-1.7-5.3-1.57-6.37-1.58-8.72-3.64-30.45-.37-3.24-.32-4.62-.1-7.6 1.26-51.3-.45-6.54-.57-4.83-.65-3.8-.7-3.08-.7-2.57-.74-2.17-.74-1.86-.74-1.63-.74-1.44-.75-1.27-.74-1.14-.65-.9-1.64-2.06-1.93-2.23-2.24-2.4-2.67-2.6-3.16-2.84-3.75-3.1-4.5-3.42-5.42-3.75-6.55-4.15-7.92-4.57-9.6-5-11.5-5.4-13.64-5.72-15.62-5.8-17.1-5.55-17.52-4.9-16.7-3.9-14.83-2.84-12.47-1.86-10.1-1.06-8.05-.52-5.35-.1" stroke="#ef8d22" stroke-width="2" stroke-linejoin="round" fill="none"/><path d="M1134.68 517.33l-1.05.03v-2l1-.03zM748.78 90.75l-.04 2-1-.02v-2z" stroke="#ef8d22" stroke-width=".05" fill="#ef8d22"/><path d="M-158.5 256.3a6 6 0 0 1 6-6h168a6 6 0 0 1 6 6v48a6 6 0 0 1-6 6h-168a6 6 0 0 1-6-6z" stroke="#5e5e5e" stroke-width="3" fill="#ffeca9"/><use xlink:href="#B" transform="matrix(1,0,0,1,-146.5,262.31242507050047) translate(18.80246913580247 22.27777777777778)"/><use xlink:href="#o" transform="matrix(1,0,0,1,-146.5,262.31242507050047) translate(75.5925925925926 22.27777777777778)"/><path d="M-158.5 156a6 6 0 0 1 6-6h168a6 6 0 0 1 6 6v48a6 6 0 0 1-6 6h-168a6 6 0 0 1-6-6z" stroke="#5e5e5e" stroke-width="3" fill="#ffeca9"/><use xlink:href="#C" transform="matrix(1,0,0,1,-146.5,162) translate(36.672839506172835 22.27777777777778)"/><path d="M-158.5 356.62a6 6 0 0 1 6-6h168a6 6 0 0 1 6 6v48a6 6 0 0 1-6 6h-168a6 6 0 0 1-6-6z" stroke="#5e5e5e" stroke-width="3" fill="#ffeca9"/><use xlink:href="#D" transform="matrix(1,0,0,1,-146.5,362.62485014100093) translate(26.271604938271594 22.27777777777778)"/><path d="M23.97 280.33l10.7.22 10.33.65 9.27.97 8.46 1.25 7.84 1.5 7.38 1.72L85 288.6l6.92 2.26 6.9 2.57 7.17 3 7.85 3.72 9.77 5.12 44.03 24.9 7.86 3.7 7.17 3.02 6.9 2.56 6.92 2.24 7.05 1.97 7.38 1.73 7.84 1.5 8.46 1.24 9.27.97 10.34.66 10.7.22" stroke="#0c7cba" stroke-width="2" stroke-linejoin="round" fill="none"/><path d="M24 279.33l-.03 2-1-.02v-2zM258.53 349v2h-1.02v-2z" stroke="#0c7cba" stroke-width=".05" fill="#0c7cba"/><path d="M23.97 180.02l8.2.17 8.32.5 7.64.8 7.1 1.06 6.63 1.26 6.3 1.48 6 1.68 5.84 1.9 5.72 2.12 5.68 2.4 5.76 2.7 5.97 3.12 6.42 3.7 7.32 4.66 9.75 6.8 38 28.04 7.33 4.65 6.42 3.7 5.97 3.13 5.76 2.7 5.68 2.4 5.7 2.13 5.84 1.9 6.02 1.67 6.3 1.48 6.63 1.26 7.1 1.05 7.64.8 8.34.5 8.2.18" stroke="#0c7cba" stroke-width="2" stroke-linejoin="round" fill="none"/><path d="M24 179.02l-.03 2-1-.02v-2zM258.53 269v2h-1.02v-2z" stroke="#0c7cba" stroke-width=".05" fill="#0c7cba"/><path d="M257.54 520h-535.08" stroke="#0c7cba" stroke-width="2" fill="none"/><path d="M258.54 521h-1.03v-2h1.04zM-277.5 521h-1.04v-2h1.03z" stroke="#0c7cba" stroke-width=".05" fill="#0c7cba"/><path d="M257.5 578.57l-12.15.24-11.44.73-10.14 1.06-9.2 1.35-8.46 1.6-7.98 1.88-7.7 2.15-7.6 2.47-7.88 2.93-8.7 3.66-11.44 5.4-39.58 19.86-8.7 3.66-7.86 2.93-7.62 2.47-7.7 2.14-7.97 1.88-8.48 1.62-9.2 1.35-10.15 1.07-11.44.7-12.14.26" stroke="#0c7cba" stroke-width="2" stroke-linejoin="round" fill="none"/><path d="M258.5 579.54l-1 .03-.05-2 1.05-.03zM24 641h-1.04v-2H24z" stroke="#0c7cba" stroke-width=".05" fill="#0c7cba"/><path d="M-460 466a6 6 0 0 1 6-6h168a6 6 0 0 1 6 6v108a6 6 0 0 1-6 6h-168a6 6 0 0 1-6-6z" stroke="#000" stroke-width="3" fill="#ffeca9"/><use xlink:href="#E" transform="matrix(1,0,0,1,-448,472) translate(12.691358024691354 38.77777777777778)"/><use xlink:href="#F" transform="matrix(1,0,0,1,-448,472) translate(52.1358024691358 38.77777777777778)"/><use xlink:href="#G" transform="matrix(1,0,0,1,-448,472) translate(54.635802469135804 65.44444444444446)"/><path d="M-158.5 586a6 6 0 0 1 6-6h168a6 6 0 0 1 6 6v108a6 6 0 0 1-6 6h-168a6 6 0 0 1-6-6z" stroke="#000" stroke-width="3" fill="#ffeca9"/><use xlink:href="#H" transform="matrix(1,0,0,1,-146.5,592) translate(26.919753086419753 38.77777777777778)"/><use xlink:href="#I" transform="matrix(1,0,0,1,-146.5,592) translate(66.3641975308642 38.77777777777778)"/><use xlink:href="#J" transform="matrix(1,0,0,1,-146.5,592) translate(14.543209876543209 65.44444444444446)"/><path d="M-460 706a6 6 0 0 1 6-6h168a6 6 0 0 1 6 6v108a6 6 0 0 1-6 6h-168a6 6 0 0 1-6-6z" stroke="#000" stroke-width="3" fill="#ffeca9"/><use xlink:href="#H" transform="matrix(1,0,0,1,-448,712) translate(14.574074074074076 38.77777777777778)"/><use xlink:href="#K" transform="matrix(1,0,0,1,-448,712) translate(54.01851851851852 38.77777777777778)"/><use xlink:href="#L" transform="matrix(1,0,0,1,-448,712) translate(49.72839506172839 65.44444444444446)"/><path d="M-160 827.9a6 6 0 0 1 6-6H14a6 6 0 0 1 6 6v108a6 6 0 0 1-6 6h-168a6 6 0 0 1-6-6z" stroke="#000" stroke-width="3" fill="#ffeca9"/><use xlink:href="#H" transform="matrix(1,0,0,1,-148,833.8902458073422) translate(31.179012345679013 38.77777777777778)"/><use xlink:href="#M" transform="matrix(1,0,0,1,-148,833.8902458073422) translate(70.62345679012346 38.77777777777778)"/><use xlink:href="#N" transform="matrix(1,0,0,1,-148,833.8902458073422) translate(44.66666666666667 65.44444444444446)"/><path d="M257.5 592.7l-9 .18-9.24.58-8.64.9-8.1 1.2-7.67 1.47-7.3 1.7-7 1.96-6.72 2.18-6.54 2.43-6.4 2.7-6.28 2.95-6.23 3.26-6.23 3.6-6.28 4-6.43 4.45-6.65 5.05-7.02 5.8-7.64 6.9-8.74 8.57-11.17 11.93-52.3 59.8-7.92 7.77-6.8 6.14-.77.67-3.16 2.58-3.37 2.53-3.6 2.48-3.88 2.43-4.18 2.38-4.55 2.35-4.98 2.3-5.48 2.27-6.08 2.23-6.8 2.17-7.74 2.12-8.88 2.03-10.38 1.92-12.43 1.76-15.37 1.52-20.06 1.14-29.25.4-167.8-5.22" stroke="#0c7cba" stroke-width="2" stroke-linejoin="round" fill="none"/><path d="M258.52 593.68l-1 .02-.05-2 1.05-.02zM-277.47 767.28l-.07 2-1-.03v-2z" stroke="#0c7cba" stroke-width=".05" fill="#0c7cba"/><path d="M257.54 610.02l-8.8.18-8.82.55-8.07.85-7.42 1.1-6.86 1.3-6.38 1.5-5.97 1.66-5.58 1.8-5.24 1.96-4.94 2.08-4.7 2.2-4.43 2.33-4.23 2.44-4.04 2.56-3.87 2.7-3.72 2.8-3.56 2.95-3.44 3.1-3.3 3.24-3.2 3.4-3.1 3.6-3 3.78-2.92 4-2.8 4.25-2.74 4.5-2.64 4.8-2.55 5.15-2.46 5.52-2.35 5.94-2.24 6.44-2.1 7-1.97 7.62-1.76 8.38-.22 1.14-4.24 20.52-4.84 19.3-5.1 17.27-5.13 15-4.97 12.78-4.73 10.82-4.46 9.12-4.17 7.7-3.9 6.52-3.64 5.54-3.4 4.75-3.2 4.08-3 3.5-2.83 3.07-2.7 2.65-2.54 2.32-2.43 2.04-2.32 1.8-2.23 1.57-2.15 1.38-2.08 1.22-2.03 1.07-1.96.94-1.92.82-1.9.72-1.85.6-1.83.53-1.82.44-1.8.34-1.8.28-1.8.2-1.8.12-1.06.03" stroke="#0c7cba" stroke-width="2" stroke-linejoin="round" fill="none"/><path d="M258.54 611l-1 .02-.05-2 1.04-.02zM22.5 882.9h-1.04v-2h1.03z" stroke="#0c7cba" stroke-width=".05" fill="#0c7cba"/><path d="M-460 946a6 6 0 0 1 6-6h168a6 6 0 0 1 6 6v108a6 6 0 0 1-6 6h-168a6 6 0 0 1-6-6z" stroke="#000" stroke-width="3" fill="#ffeca9"/><use xlink:href="#H" transform="matrix(1,0,0,1,-448,952) translate(1.0864197530864317 53.77777777777778)"/><use xlink:href="#O" transform="matrix(1,0,0,1,-448,952) translate(40.530864197530875 53.77777777777778)"/><path d="M257.55 627.1l-3.78.1-4.4.26-4.07.43-3.8.55-3.55.68-3.34.78-3.16.9-3 .97-2.88 1.07-2.75 1.16-2.64 1.24-2.57 1.34-2.5 1.44-2.4 1.53-2.38 1.65-2.3 1.76-2.3 1.9-2.25 2.02-2.23 2.18-2.22 2.37-2.2 2.56-2.23 2.8-2.24 3.05-2.24 3.38-2.27 3.75-2.3 4.2-2.36 4.75-2.42 5.43-2.5 6.3-2.6 7.47-2.73 9.08-2.94 11.53-3.32 15.76-4.45 26.73-13.77 94.2-3.8 18.04-3.5 13.6-3.3 10.98-3.2 9.22-3.14 7.93-3.1 6.94-3.04 6.15-3.03 5.5-3.02 5-.73 1.14-2.6 3.84-2.77 3.72-2.93 3.62-3.1 3.52-3.3 3.45-3.53 3.37-3.75 3.3-4.03 3.27-4.33 3.2-4.66 3.18-5.04 3.13-5.5 3.1-6 3.07-6.62 3.02-7.33 3-8.16 2.93-9.2 2.88-10.44 2.8-12.02 2.7-14.05 2.5-16.74 2.3-20.52 1.93-26.3 1.36-36.95.35-176.27-6.46" stroke="#0c7cba" stroke-width="2" stroke-linejoin="round" fill="none"/><path d="M258.56 628.1h-1l-.05-2h1.05zM-277.48 999.04l-.07 2-1-.04v-2z" stroke="#0c7cba" stroke-width=".05" fill="#0c7cba"/><path d="M560 326a6 6 0 0 1 6-6h148a6 6 0 0 1 6 6v48a6 6 0 0 1-6 6H566a6 6 0 0 1-6-6z" stroke="#5e5e5e" stroke-width="3" fill="#ffdba9"/><use xlink:href="#P" transform="matrix(1,0,0,1,572,332) translate(16.30246913580247 22.40277777777778)"/><path d="M540 416.62a6 6 0 0 1 6-6h168a6 6 0 0 1 6 6v48a6 6 0 0 1-6 6H546a6 6 0 0 1-6-6z" stroke="#5e5e5e" stroke-width="3" fill="#ffdba9"/><use xlink:href="#Q" transform="matrix(1,0,0,1,552,422.62485014100093) translate(48.49382716049383 22.40277777777778)"/><path d="M260 406.67a6 6 0 0 1 6-6h188a6 6 0 0 1 6 6v48a6 6 0 0 1-6 6H266a6 6 0 0 1-6-6z" stroke="#5e5e5e" stroke-width="3" fill="#ffdba9"/><use xlink:href="#R" transform="matrix(1,0,0,1,272,412.66666666666663) translate(17.135802469135797 22.40277777777778)"/><path d="M257.53 430.65l-14.9-.3-13.43-.85-11.7-1.22-10.47-1.54-9.64-1.84-9.18-2.15-9.1-2.54-9.64-3.13-11.95-4.46-45.5-18.38-9.66-3.14-9.1-2.54-9.16-2.15-9.63-1.85L64 383l-11.7-1.2-13.44-.85-14.9-.3" stroke="#c92d39" stroke-width="2" stroke-linejoin="round" fill="none"/><path d="M258.53 429.67v2l-1.04-.02.03-2zM24 379.62v2h-1.03v-2z" stroke="#c92d39" stroke-width=".05" fill="#c92d39"/><path d="M639.92 382.46l-.28 3.24-.88 3.2-1.57 3.18-5.96 9.65-.88 3.2-.28 3.24" stroke="#c92d39" stroke-width="2" stroke-linejoin="round" fill="none"/><path d="M640.9 382.57l-1.98-.17.08-.94h2zM631 408.74v.42h-2v-.42z" stroke="#c92d39" stroke-width=".05" fill="#c92d39"/><path d="M537.54 440.6l-10.73-.33-8.4-.8-7.32-1.2-29.47-6.44-8.4-.8-10.74-.33" stroke="#c92d39" stroke-width="2" stroke-linejoin="round" fill="none"/><path d="M538.53 439.62v2l-1.05-.03.06-2zM462.5 429.67v2h-1.03v-2z" stroke="#c92d39" stroke-width=".05" fill="#c92d39"/><path d="M442.46 270.02l31.35.47 10.25.9 7.06 1.1 5.3 1.16 4.12 1.17 3.33 1.17 2.74 1.16 2.3 1.15 1.95 1.15 1.68 1.12 1.47 1.1 1.3 1.12 1.14 1.1 1.02 1.12.9 1.14.82 1.16.73 1.18.66 1.22.58 1.27.5 1.32.45 1.4.35 1.5.3 1.6.2 1.72.1 1.88v2.08l-.16 2.32-.35 2.62-.17.97-9.16 44.94-4.32 16.42-2.8 8.75L504 384l-1.68 3.77-1.4 2.75-1.22 2.1-1.1 1.66-.98 1.35-.9 1.13-.87.94-.82.8-.8.7-.77.63-.76.54-.76.48-.77.43-.8.4-.8.34-.85.3-.9.28-1 .25-1.1.2-1.23.18-1.5.13-1.9.06-2.88-.08-17.17-1.03" stroke="#c92d39" stroke-width="2" stroke-linejoin="round" fill="none"/><path d="M442.5 269.02l-.02 2-1-.02-.02-2zM461.14 401.3l-.12 2-.33-.02v-.02l-.63-1-.76-.9-.2-.18z" stroke="#c92d39" stroke-width=".05" fill="#c92d39"/><path d="M260 166a6 6 0 0 1 6-6h148a6 6 0 0 1 6 6v48a6 6 0 0 1-6 6H266a6 6 0 0 1-6-6z" stroke="#5e5e5e" stroke-width="3" fill="#ffdba9"/><use xlink:href="#S" transform="matrix(1,0,0,1,272,172) translate(44.60493827160494 22.40277777777778)"/><path d="M746.3 70h60v20h-60z" fill="none"/><use xlink:href="#a" transform="matrix(1,0,0,1,746.3059340271469,70) translate(11.777777777777782 14.222222222222221)"/><path d="M-158.5-164a6 6 0 0 1 6-6h168a6 6 0 0 1 6 6v108a6 6 0 0 1-6 6h-168a6 6 0 0 1-6-6z" stroke="#000" stroke-width="3" fill="#ffeca9"/><g><use xlink:href="#T" transform="matrix(1,0,0,1,-146.5,-158) translate(61.3641975308642 38.77777777777778)"/><use xlink:href="#U" transform="matrix(1,0,0,1,-146.5,-158) translate(22.5679012345679 65.44444444444446)"/><use xlink:href="#V" transform="matrix(1,0,0,1,-146.5,-158) translate(75.53086419753086 65.44444444444446)"/></g><path d="M220 86a6 6 0 0 1 6-6h154.3a6 6 0 0 1 6 6v36.67a6 6 0 0 1-6 6H226a6 6 0 0 1-6-6z" fill="#b2d6ef"/><path d="M235.93 80.07h9.3m6.22 0h9.32m6.2-.02h9.32m6.2 0h9.32m6.2 0l9.32-.02m6.2 0h9.33m6.2 0h9.32m6.2 0l9.3-.02m6.22 0h9.32m6.2 0h4.67l.94.07.92.22.87.35.8.5.72.6.6.72.5.8.36.88.23.9v3.77m.02 5.02v7.52m.02 5l.02 7.53m0 5v3.77l-.07.94-.22.92-.35.87-.5.8-.6.7-.72.62-.8.5-.87.35-.92.22h-4.65m-6.22 0h-9.32m-6.2 0h-9.32m-6.2 0l-9.33.02m-6.2 0h-9.3m-6.22 0h-9.32m-6.2 0l-9.32.02m-6.2 0h-9.32m-6.2 0h-9.33m-6.22.02h-9.3m-6.22 0H226l-.94-.07-.9-.23-.88-.36-.8-.48-.72-.6-.6-.73-.5-.8-.37-.88-.23-.9v-3.78m0-5l-.03-7.53m0-5l-.02-7.53m0-5L220 86l.07-.94.22-.9.35-.88.5-.8.6-.72.72-.6.8-.5.88-.37.9-.23h4.67" stroke="#5e5e5e" stroke-width="3" fill="none"/><g><use xlink:href="#W" transform="matrix(1,0,0,1,232,92) translate(14.21604938271605 17.77777777777778)"/><use xlink:href="#o" transform="matrix(1,0,0,1,232,92) translate(67.17901234567901 17.77777777777778)"/></g><path d="M339.93 157.54v-.07l-.2-1-.36-.98-.5-1.02-.77-1.07-1.12-1.2-1.8-1.45-3.28-2-23.94-10.83-1.8-1.46-1.1-1.2-.76-1.08-.52-1-.35-.98-.2-1v-.07" stroke="#0c7cba" stroke-width="2" stroke-linejoin="round" fill="none"/><path d="M341 158.54h-2l-.07-.96 2-.13zM304.15 130.57h-2v-.44h2z" stroke="#0c7cba" stroke-width=".05" fill="#0c7cba"/><path d="M557.54 350.05l-2.6.14-2.82.45-2.34.65-2.02.8-1.82.98-1.7 1.16-1.62 1.4-1.65 1.75-1.73 2.32-2.02 3.4-3.05 6.9-10.04 24.92-.5.94-1.57 2.66-1.64 2.32-1.7 2.05-1.8 1.85-1.93 1.67-2.08 1.52-2.27 1.4-2.54 1.3-2.88 1.2-3.42 1.1-4.2 1-5.55.83-8.67.58-20.94-.05" stroke="#c92d39" stroke-width="2" stroke-linejoin="round" fill="none"/><path d="M558.54 351l-.98.05-.1-2 1.07-.05zM462.47 414.3v2h-1.03v-2z" stroke="#c92d39" stroke-width=".05" fill="#c92d39"/><path d="M386.25 382.45l-.15.52-.38.76-.65.85-1.17 1.05-2.53 1.52-19.5 7.9-1.16 1.03-.64.85-.38.76-.15.52" stroke="#c92d39" stroke-width="2" stroke-linejoin="round" fill="none"/><path d="M387.3 382.57l-2-.18.08-.94h2zM360.4 398.93v.27h-2v-.27z" stroke="#c92d39" stroke-width=".05" fill="#c92d39"/><path d="M1134.7 854.14l1.1.04 1.78.2 1.52.3 1.34.36 1.2.42 1.08.48 1 .54.92.6.88.65.83.73.8.83.8.92.76 1.08.78 1.26.77 1.52.78 1.87.8 2.42.82 3.37.9 5.45 3.6 33.04 1.2 4.93 1.26 3.82.04.07" stroke="#ef8d22" stroke-width="2" stroke-linejoin="round" fill="none"/><path d="M1134.75 853.14l-.07 2-1-.03v-2z" stroke="#ef8d22" stroke-width=".05" fill="#ef8d22"/><path d="M1159.63 919.04l.37.96" stroke="#ef8d22" stroke-width="2" fill="none"/><path d="M-480-14a6 6 0 0 1 6-6h168a6 6 0 0 1 6 6V94a6 6 0 0 1-6 6h-168a6 6 0 0 1-6-6z" stroke="#000" stroke-width="3" fill="#ffeca9"/><g><use xlink:href="#X" transform="matrix(1,0,0,1,-468,-8) translate(19.63580246913581 53.77777777777778)"/><use xlink:href="#Y" transform="matrix(1,0,0,1,-468,-8) translate(69.69753086419755 53.77777777777778)"/></g><path d="M257.5 252.4l-9.18-.28-7.96-.74-6.42-1-5.32-1.2-4.5-1.3-3.9-1.4-3.42-1.48-3.06-1.56-2.75-1.63-2.54-1.7-2.34-1.83-2.2-1.94-2.1-2.1-2-2.27-1.95-2.53-1.94-2.86-1.96-3.32-2.06-4.06-2.28-5.35-3.15-8.88L179 181.2l-6.4-16.92-5.7-13.06-5.68-11.47-6-10.75-6.62-10.57-7.5-10.8-8.8-11.4-10.65-12.46-4.14-4.54-2.4-2.5-2.6-2.47-2.84-2.48-3.08-2.48-3.38-2.5-3.7-2.5-4.1-2.5-4.56-2.55-5.07-2.57-5.7-2.58-6.47-2.6-7.38-2.64-8.52-2.63-9.95-2.62-11.8-2.58-14.2-2.5L4.2 36.2l-22.36-2.02-30-1.43L-93 32.5l-204.54 7.46" stroke="#0c7cba" stroke-width="2" stroke-linejoin="round" fill="none"/><path d="M258.5 251.43v2l-1.05-.03.06-2zM-297.48 40.96l-1.06.04v-2l1-.04z" stroke="#0c7cba" stroke-width=".05" fill="#0c7cba"/><path d="M303.13 77.53l-.06-2.9-.22-3.62-.36-3.36-.47-3.15-.57-2.98-.66-2.8-.74-2.68-.84-2.56-.9-2.47-1-2.37-1.1-2.3-1.18-2.27-1.28-2.2-1.38-2.2-1.5-2.15-1.63-2.13-1.78-2.15-1.95-2.17-2.14-2.18-2.38-2.24-2.66-2.3-3-2.38-3.47-2.5-4.04-2.7-4.87-2.93-6.13-3.37-8.46-4.18L231.9-1l-36-15.4-9.78-4.86-6.38-3.47-7.2-4.3-8.4-5.52-10.94-7.87-52.95-40.88-7.92-5.2-6.74-4.03-6.05-3.27-5.57-2.73-5.27-2.3-5.04-1.97-4.9-1.67-4.82-1.42-4.77-1.18-4.76-.98-4.77-.78-4.85-.58-4.94-.4-5.07-.17h-.8" stroke="#0c7cba" stroke-width="2" stroke-linejoin="round" fill="none"/><path d="M304.15 78.54h-2l-.02-1 2-.05zM24-111l-.02 2h-1.02v-2z" stroke="#0c7cba" stroke-width=".05" fill="#0c7cba"/><defs><path fill="#ef8d22" d="M185-48c-13 30-37 53-82 52C43 2 14-33 14-96s30-98 90-98c62 0 83 45 84 108H66c0 31 8 55 39 56 18 0 30-7 34-22zm-45-69c5-46-57-63-70-21-2 6-4 13-4 21h74" id="Z"/><path fill="#ef8d22" d="M115-3C79 11 28 4 28-45v-112H4v-33h27l15-45h31v45h36v33H77v99c-1 23 16 31 38 25v30" id="aa"/><path fill="#ef8d22" d="M114-157C55-157 80-60 75 0H25v-261h50l-1 109c12-26 28-41 61-42 86-1 58 113 63 194h-50c-7-57 23-157-34-157" id="ab"/><path fill="#ef8d22" d="M101-251c68 0 84 54 84 127C185-50 166 4 99 4S15-52 14-124c-1-75 17-127 87-127zm-1 216c37-5 36-46 36-89s4-89-36-89c-39 0-36 45-36 89 0 43-3 85 36 89" id="ac"/><g id="a"><use transform="matrix(0.049382716049382706,0,0,0.049382716049382706,0,0)" xlink:href="#Z"/><use transform="matrix(0.049382716049382706,0,0,0.049382716049382706,9.87654320987654,0)" xlink:href="#aa"/><use transform="matrix(0.049382716049382706,0,0,0.049382716049382706,15.75308641975308,0)" xlink:href="#ab"/><use transform="matrix(0.049382716049382706,0,0,0.049382716049382706,26.567901234567895,0)" xlink:href="#ac"/></g><path fill="#333" d="M24-248c120-7 223 5 221 122C244-46 201 0 124 0H24v-248zM76-40c74 7 117-18 117-86 0-67-45-88-117-82v168" id="ad"/><path fill="#333" d="M135-150c-39-12-60 13-60 57V0H25l-1-190h47c2 13-1 29 3 40 6-28 27-53 61-41v41" id="ae"/><path fill="#333" d="M25-224v-37h50v37H25zM25 0v-190h50V0H25" id="af"/><path fill="#333" d="M128 0H69L1-190h53L99-40l48-150h52" id="ag"/><path fill="#333" d="M185-48c-13 30-37 53-82 52C43 2 14-33 14-96s30-98 90-98c62 0 83 45 84 108H66c0 31 8 55 39 56 18 0 30-7 34-22zm-45-69c5-46-57-63-70-21-2 6-4 13-4 21h74" id="ah"/><path fill="#333" d="M76-54c-1 42 2 86-19 110H24C36 42 46 24 48 0H25v-54h51" id="ai"/><g id="c"><use transform="matrix(0.06172839506172839,0,0,0.06172839506172839,0,0)" xlink:href="#ad"/><use transform="matrix(0.06172839506172839,0,0,0.06172839506172839,15.987654320987653,0)" xlink:href="#ae"/><use transform="matrix(0.06172839506172839,0,0,0.06172839506172839,24.629629629629626,0)" xlink:href="#af"/><use transform="matrix(0.06172839506172839,0,0,0.06172839506172839,30.802469135802465,0)" xlink:href="#ag"/><use transform="matrix(0.06172839506172839,0,0,0.06172839506172839,43.148148148148145,0)" xlink:href="#ah"/><use transform="matrix(0.06172839506172839,0,0,0.06172839506172839,55.49382716049382,0)" xlink:href="#ae"/><use transform="matrix(0.06172839506172839,0,0,0.06172839506172839,62.90123456790123,0)" xlink:href="#ai"/></g><path fill="#333" d="M190-63c-7 42-38 67-86 67-59 0-84-38-90-98-12-110 154-137 174-36l-49 2c-2-19-15-32-35-32-30 0-35 28-38 64-6 74 65 87 74 30" id="aj"/><path fill="#333" d="M110-194c64 0 96 36 96 99 0 64-35 99-97 99-61 0-95-36-95-99 0-62 34-99 96-99zm-1 164c35 0 45-28 45-65 0-40-10-65-43-65-34 0-45 26-45 65 0 36 10 65 43 65" id="ak"/><path fill="#333" d="M135-194c87-1 58 113 63 194h-50c-7-57 23-157-34-157-59 0-34 97-39 157H25l-1-190h47c2 12-1 28 3 38 12-26 28-41 61-42" id="al"/><path fill="#333" d="M88-194c31-1 46 15 58 34l-1-101h50l1 261h-48c-2-10 0-23-3-31C134-8 116 4 84 4 32 4 16-41 15-95c0-56 19-97 73-99zm17 164c33 0 40-30 41-66 1-37-9-64-41-64s-38 30-39 65c0 43 13 65 39 65" id="am"/><path fill="#333" d="M85 4C-2 5 27-109 22-190h50c7 57-23 150 33 157 60-5 35-97 40-157h50l1 190h-47c-2-12 1-28-3-38-12 25-28 42-61 42" id="an"/><path fill="#333" d="M115-3C79 11 28 4 28-45v-112H4v-33h27l15-45h31v45h36v33H77v99c-1 23 16 31 38 25v30" id="ao"/><g id="d"><use transform="matrix(0.06172839506172839,0,0,0.06172839506172839,0,0)" xlink:href="#aj"/><use transform="matrix(0.06172839506172839,0,0,0.06172839506172839,12.345679012345679,0)" xlink:href="#ak"/><use transform="matrix(0.06172839506172839,0,0,0.06172839506172839,25.864197530864196,0)" xlink:href="#al"/><use transform="matrix(0.06172839506172839,0,0,0.06172839506172839,39.382716049382715,0)" xlink:href="#am"/><use transform="matrix(0.06172839506172839,0,0,0.06172839506172839,52.901234567901234,0)" xlink:href="#an"/><use transform="matrix(0.06172839506172839,0,0,0.06172839506172839,66.41975308641975,0)" xlink:href="#aj"/><use transform="matrix(0.06172839506172839,0,0,0.06172839506172839,78.76543209876543,0)" xlink:href="#ao"/><use transform="matrix(0.06172839506172839,0,0,0.06172839506172839,86.11111111111111,0)" xlink:href="#ak"/><use transform="matrix(0.06172839506172839,0,0,0.06172839506172839,99.62962962962963,0)" xlink:href="#ae"/></g><path fill="#333" d="M220-157c-53 9-28 100-34 157h-49v-107c1-27-5-49-29-50C55-147 81-57 75 0H25l-1-190h47c2 12-1 28 3 38 10-53 101-56 108 0 13-22 24-43 59-42 82 1 51 116 57 194h-49v-107c-1-25-5-48-29-50" id="ap"/><path fill="#333" d="M133-34C117-15 103 5 69 4 32 3 11-16 11-54c-1-60 55-63 116-61 1-26-3-47-28-47-18 1-26 9-28 27l-52-2c7-38 36-58 82-57s74 22 75 68l1 82c-1 14 12 18 25 15v27c-30 8-71 5-69-32zm-48 3c29 0 43-24 42-57-32 0-66-3-65 30 0 17 8 27 23 27" id="aq"/><path fill="#333" d="M25 0v-261h50V0H25" id="ar"/><g id="e"><use transform="matrix(0.06172839506172839,0,0,0.06172839506172839,0,0)" xlink:href="#ao"/><use transform="matrix(0.06172839506172839,0,0,0.06172839506172839,7.345679012345679,0)" xlink:href="#ah"/><use transform="matrix(0.06172839506172839,0,0,0.06172839506172839,19.691358024691358,0)" xlink:href="#ae"/><use transform="matrix(0.06172839506172839,0,0,0.06172839506172839,28.333333333333332,0)" xlink:href="#ap"/><use transform="matrix(0.06172839506172839,0,0,0.06172839506172839,48.08641975308642,0)" xlink:href="#af"/><use transform="matrix(0.06172839506172839,0,0,0.06172839506172839,54.25925925925926,0)" xlink:href="#al"/><use transform="matrix(0.06172839506172839,0,0,0.06172839506172839,67.77777777777777,0)" xlink:href="#aq"/><use transform="matrix(0.06172839506172839,0,0,0.06172839506172839,80.12345679012346,0)" xlink:href="#ar"/></g><path fill="#333" d="M147 0H94L2-248h55l64 206c17-72 42-137 63-206h54" id="as"/><g id="f"><use transform="matrix(0.06172839506172839,0,0,0.06172839506172839,0,0)" xlink:href="#as"/><use transform="matrix(0.06172839506172839,0,0,0.06172839506172839,13.580246913580245,0)" xlink:href="#aq"/><use transform="matrix(0.06172839506172839,0,0,0.06172839506172839,25.925925925925924,0)" xlink:href="#ar"/><use transform="matrix(0.06172839506172839,0,0,0.06172839506172839,32.098765432098766,0)" xlink:href="#af"/><use transform="matrix(0.06172839506172839,0,0,0.06172839506172839,38.27160493827161,0)" xlink:href="#am"/><use transform="matrix(0.06172839506172839,0,0,0.06172839506172839,51.79012345679013,0)" xlink:href="#aq"/><use transform="matrix(0.06172839506172839,0,0,0.06172839506172839,64.13580246913581,0)" xlink:href="#ao"/><use transform="matrix(0.06172839506172839,0,0,0.06172839506172839,71.4814814814815,0)" xlink:href="#ak"/><use transform="matrix(0.06172839506172839,0,0,0.06172839506172839,85.00000000000001,0)" xlink:href="#ae"/></g><path fill="#333" d="M23 0v-37h61v-169l-59 37v-38l62-41h46v211h57V0H23" id="at"/><use transform="matrix(0.06172839506172839,0,0,0.06172839506172839,0,0)" xlink:href="#at" id="g"/><path fill="#333" d="M186 0v-106H76V0H24v-248h52v99h110v-99h50V0h-50" id="au"/><path fill="#333" d="M136-208V0H84v-208H4v-40h212v40h-80" id="av"/><path fill="#333" d="M24-248c93 1 206-16 204 79-1 75-69 88-152 82V0H24v-248zm52 121c47 0 100 7 100-41 0-47-54-39-100-39v80" id="aw"/><g id="h"><use transform="matrix(0.04938271604938272,0,0,0.04938271604938272,0,0)" xlink:href="#au"/><use transform="matrix(0.04938271604938272,0,0,0.04938271604938272,12.790123456790125,0)" xlink:href="#av"/><use transform="matrix(0.04938271604938272,0,0,0.04938271604938272,23.60493827160494,0)" xlink:href="#av"/><use transform="matrix(0.04938271604938272,0,0,0.04938271604938272,34.41975308641975,0)" xlink:href="#aw"/></g><path fill="#333" d="M133 41v34c-50 4-88-6-87-53 0-46 9-101-40-98v-34c48 2 40-52 40-98-1-47 37-57 87-53v34c-79-14-6 124-77 134 73 11-4 147 77 134" id="ax"/><path fill="#333" d="M25-224v-37h50v37H25zM75 22c2 45-34 59-81 51V38c22 5 31-5 31-27v-201h50V22" id="ay"/><path fill="#333" d="M137-138c1-29-70-34-71-4 15 46 118 7 119 86 1 83-164 76-172 9l43-7c4 19 20 25 44 25 33 8 57-30 24-41C81-84 22-81 20-136c-2-80 154-74 161-7" id="az"/><path fill="#333" d="M94-36c2 56 4 113-52 111H8V41C85 54 13-83 84-94c-39-5-38-51-36-97 1-27-12-38-40-36v-34c49-4 87 6 86 53s-8 101 41 98v34c-26 1-42 13-41 40" id="aA"/><g id="i"><use transform="matrix(0.04938271604938272,0,0,0.04938271604938272,0,0)" xlink:href="#ax"/><use transform="matrix(0.04938271604938272,0,0,0.04938271604938272,6.913580246913581,0)" xlink:href="#ay"/><use transform="matrix(0.04938271604938272,0,0,0.04938271604938272,11.851851851851853,0)" xlink:href="#az"/><use transform="matrix(0.04938271604938272,0,0,0.04938271604938272,21.7283950617284,0)" xlink:href="#ak"/><use transform="matrix(0.04938271604938272,0,0,0.04938271604938272,32.543209876543216,0)" xlink:href="#al"/><use transform="matrix(0.04938271604938272,0,0,0.04938271604938272,43.35802469135803,0)" xlink:href="#aA"/></g><path fill="#333" d="M67-125c0 53 21 87 73 88 37 1 54-22 65-47l45 17C233-25 199 4 140 4 58 4 20-42 15-125 8-235 124-281 211-232c18 10 29 29 36 50l-46 12c-8-25-30-41-62-41-52 0-71 34-72 86" id="aB"/><g id="j"><use transform="matrix(0.04938271604938272,0,0,0.04938271604938272,0,0)" xlink:href="#ad"/><use transform="matrix(0.04938271604938272,0,0,0.04938271604938272,12.790123456790125,0)" xlink:href="#au"/><use transform="matrix(0.04938271604938272,0,0,0.04938271604938272,25.58024691358025,0)" xlink:href="#aB"/><use transform="matrix(0.04938271604938272,0,0,0.04938271604938272,38.370370370370374,0)" xlink:href="#aw"/></g><g id="l"><use transform="matrix(0.06172839506172839,0,0,0.06172839506172839,0,0)" xlink:href="#as"/><use transform="matrix(0.06172839506172839,0,0,0.06172839506172839,13.580246913580245,0)" xlink:href="#aq"/><use transform="matrix(0.06172839506172839,0,0,0.06172839506172839,25.925925925925924,0)" xlink:href="#ar"/><use transform="matrix(0.06172839506172839,0,0,0.06172839506172839,32.098765432098766,0)" xlink:href="#af"/><use transform="matrix(0.06172839506172839,0,0,0.06172839506172839,38.27160493827161,0)" xlink:href="#am"/><use transform="matrix(0.06172839506172839,0,0,0.06172839506172839,51.79012345679013,0)" xlink:href="#aq"/><use transform="matrix(0.06172839506172839,0,0,0.06172839506172839,64.13580246913581,0)" xlink:href="#ao"/><use transform="matrix(0.06172839506172839,0,0,0.06172839506172839,71.4814814814815,0)" xlink:href="#ak"/><use transform="matrix(0.06172839506172839,0,0,0.06172839506172839,85.00000000000001,0)" xlink:href="#ae"/></g><path fill="#333" d="M175 0L67-191c6 58 2 128 3 191H24v-248h59L193-55c-6-58-2-129-3-193h46V0h-61" id="aC"/><use transform="matrix(0.06172839506172839,0,0,0.06172839506172839,0,0)" xlink:href="#aC" id="m"/><path fill="#333" d="M30-248c118-7 216 8 213 122C240-48 200 0 122 0H30v-248zM63-27c89 8 146-16 146-99s-60-101-146-95v194" id="aD"/><path fill="#333" d="M197 0v-115H63V0H30v-248h33v105h134v-105h34V0h-34" id="aE"/><path fill="#333" d="M212-179c-10-28-35-45-73-45-59 0-87 40-87 99 0 60 29 101 89 101 43 0 62-24 78-52l27 14C228-24 195 4 139 4 59 4 22-46 18-125c-6-104 99-153 187-111 19 9 31 26 39 46" id="aF"/><path fill="#333" d="M30-248c87 1 191-15 191 75 0 78-77 80-158 76V0H30v-248zm33 125c57 0 124 11 124-50 0-59-68-47-124-48v98" id="aG"/><g id="n"><use transform="matrix(0.06172839506172839,0,0,0.06172839506172839,0,0)" xlink:href="#aD"/><use transform="matrix(0.06172839506172839,0,0,0.06172839506172839,15.987654320987653,0)" xlink:href="#aE"/><use transform="matrix(0.06172839506172839,0,0,0.06172839506172839,31.975308641975307,0)" xlink:href="#aF"/><use transform="matrix(0.06172839506172839,0,0,0.06172839506172839,47.96296296296296,0)" xlink:href="#aG"/></g><path fill="#333" d="M135-143c-3-34-86-38-87 0 15 53 115 12 119 90S17 21 10-45l28-5c4 36 97 45 98 0-10-56-113-15-118-90-4-57 82-63 122-42 12 7 21 19 24 35" id="aH"/><path fill="#333" d="M100-194c63 0 86 42 84 106H49c0 40 14 67 53 68 26 1 43-12 49-29l28 8c-11 28-37 45-77 45C44 4 14-33 15-96c1-61 26-98 85-98zm52 81c6-60-76-77-97-28-3 7-6 17-6 28h103" id="aI"/><path fill="#333" d="M114-163C36-179 61-72 57 0H25l-1-190h30c1 12-1 29 2 39 6-27 23-49 58-41v29" id="aJ"/><path fill="#333" d="M108 0H70L1-190h34L89-25l56-165h34" id="aK"/><g id="o"><use transform="matrix(0.06172839506172839,0,0,0.06172839506172839,0,0)" xlink:href="#aH"/><use transform="matrix(0.06172839506172839,0,0,0.06172839506172839,11.11111111111111,0)" xlink:href="#aI"/><use transform="matrix(0.06172839506172839,0,0,0.06172839506172839,23.45679012345679,0)" xlink:href="#aJ"/><use transform="matrix(0.06172839506172839,0,0,0.06172839506172839,30.80246913580247,0)" xlink:href="#aK"/><use transform="matrix(0.06172839506172839,0,0,0.06172839506172839,41.91358024691358,0)" xlink:href="#aI"/><use transform="matrix(0.06172839506172839,0,0,0.06172839506172839,54.25925925925926,0)" xlink:href="#aJ"/></g><path fill="#333" d="M96-169c-40 0-48 33-48 73s9 75 48 75c24 0 41-14 43-38l32 2c-6 37-31 61-74 61-59 0-76-41-82-99-10-93 101-131 147-64 4 7 5 14 7 22l-32 3c-4-21-16-35-41-35" id="aL"/><path fill="#333" d="M24 0v-261h32V0H24" id="aM"/><path fill="#333" d="M24-231v-30h32v30H24zM24 0v-190h32V0H24" id="aN"/><path fill="#333" d="M117-194c89-4 53 116 60 194h-32v-121c0-31-8-49-39-48C34-167 62-67 57 0H25l-1-190h30c1 10-1 24 2 32 11-22 29-35 61-36" id="aO"/><path fill="#333" d="M59-47c-2 24 18 29 38 22v24C64 9 27 4 27-40v-127H5v-23h24l9-43h21v43h35v23H59v120" id="aP"/><g id="p"><use transform="matrix(0.06172839506172839,0,0,0.06172839506172839,0,0)" xlink:href="#aL"/><use transform="matrix(0.06172839506172839,0,0,0.06172839506172839,11.11111111111111,0)" xlink:href="#aM"/><use transform="matrix(0.06172839506172839,0,0,0.06172839506172839,15.987654320987653,0)" xlink:href="#aN"/><use transform="matrix(0.06172839506172839,0,0,0.06172839506172839,20.864197530864196,0)" xlink:href="#aI"/><use transform="matrix(0.06172839506172839,0,0,0.06172839506172839,33.20987654320987,0)" xlink:href="#aO"/><use transform="matrix(0.06172839506172839,0,0,0.06172839506172839,45.55555555555555,0)" xlink:href="#aP"/></g><path fill="#ef8d22" d="M23 0v-37h61v-169l-59 37v-38l62-41h46v211h57V0H23" id="aQ"/><g id="q"><use transform="matrix(0.049382716049382706,0,0,0.049382716049382706,0,0)" xlink:href="#Z"/><use transform="matrix(0.049382716049382706,0,0,0.049382716049382706,9.87654320987654,0)" xlink:href="#aa"/><use transform="matrix(0.049382716049382706,0,0,0.049382716049382706,15.75308641975308,0)" xlink:href="#ab"/><use transform="matrix(0.049382716049382706,0,0,0.049382716049382706,26.567901234567895,0)" xlink:href="#aQ"/></g><path fill="#333" d="M141-36C126-15 110 5 73 4 37 3 15-17 15-53c-1-64 63-63 125-63 3-35-9-54-41-54-24 1-41 7-42 31l-33-3c5-37 33-52 76-52 45 0 72 20 72 64v82c-1 20 7 32 28 27v20c-31 9-61-2-59-35zM48-53c0 20 12 33 32 33 41-3 63-29 60-74-43 2-92-5-92 41" id="aR"/><path fill="#333" d="M179-190L93 31C79 59 56 82 12 73V49c39 6 53-20 64-50L1-190h34L92-34l54-156h33" id="aS"/><path fill="#333" d="M210-169c-67 3-38 105-44 169h-31v-121c0-29-5-50-35-48C34-165 62-65 56 0H25l-1-190h30c1 10-1 24 2 32 10-44 99-50 107 0 11-21 27-35 58-36 85-2 47 119 55 194h-31v-121c0-29-5-49-35-48" id="aT"/><g id="r"><use transform="matrix(0.06172839506172839,0,0,0.06172839506172839,0,0)" xlink:href="#aG"/><use transform="matrix(0.06172839506172839,0,0,0.06172839506172839,14.814814814814813,0)" xlink:href="#aR"/><use transform="matrix(0.06172839506172839,0,0,0.06172839506172839,27.160493827160494,0)" xlink:href="#aS"/><use transform="matrix(0.06172839506172839,0,0,0.06172839506172839,38.27160493827161,0)" xlink:href="#aT"/><use transform="matrix(0.06172839506172839,0,0,0.06172839506172839,56.72839506172839,0)" xlink:href="#aI"/><use transform="matrix(0.06172839506172839,0,0,0.06172839506172839,69.07407407407408,0)" xlink:href="#aO"/><use transform="matrix(0.06172839506172839,0,0,0.06172839506172839,81.41975308641976,0)" xlink:href="#aP"/></g><path fill="#333" d="M100-194c62-1 85 37 85 99 1 63-27 99-86 99S16-35 15-95c0-66 28-99 85-99zM99-20c44 1 53-31 53-75 0-43-8-75-51-75s-53 32-53 75 10 74 51 75" id="aU"/><path fill="#333" d="M101-234c-31-9-42 10-38 44h38v23H63V0H32v-167H5v-23h27c-7-52 17-82 69-68v24" id="aV"/><g id="s"><use transform="matrix(0.06172839506172839,0,0,0.06172839506172839,0,0)" xlink:href="#aH"/><use transform="matrix(0.06172839506172839,0,0,0.06172839506172839,11.11111111111111,0)" xlink:href="#aU"/><use transform="matrix(0.06172839506172839,0,0,0.06172839506172839,23.45679012345679,0)" xlink:href="#aV"/><use transform="matrix(0.06172839506172839,0,0,0.06172839506172839,29.62962962962963,0)" xlink:href="#aP"/></g><path fill="#333" d="M80-196l47-18 7 23-49 13 32 44-20 13-27-46-27 45-21-12 33-44-49-13 8-23 47 19-2-53h23" id="aW"/><path fill="#333" d="M160-131c35 5 61 23 61 61C221 17 115-2 30 0v-248c76 3 177-17 177 60 0 33-19 50-47 57zm-97-11c50-1 110 9 110-42 0-47-63-36-110-37v79zm0 115c55-2 124 14 124-45 0-56-70-42-124-44v89" id="aX"/><g id="t"><use transform="matrix(0.06172839506172839,0,0,0.06172839506172839,0,0)" xlink:href="#aW"/><use transform="matrix(0.06172839506172839,0,0,0.06172839506172839,8.641975308641975,0)" xlink:href="#aX"/><use transform="matrix(0.06172839506172839,0,0,0.06172839506172839,23.456790123456788,0)" xlink:href="#aW"/></g><path fill="#333" d="M205 0l-28-72H64L36 0H1l101-248h38L239 0h-34zm-38-99l-47-123c-12 45-31 82-46 123h93" id="aY"/><path fill="#333" d="M115-194c55 1 70 41 70 98S169 2 115 4C84 4 66-9 55-30l1 105H24l-1-265h31l2 30c10-21 28-34 59-34zm-8 174c40 0 45-34 45-75s-6-73-45-74c-42 0-51 32-51 76 0 43 10 73 51 73" id="aZ"/><path fill="#333" d="M85-194c31 0 48 13 60 33l-1-100h32l1 261h-30c-2-10 0-23-3-31C134-8 116 4 85 4 32 4 16-35 15-94c0-66 23-100 70-100zm9 24c-40 0-46 34-46 75 0 40 6 74 45 74 42 0 51-32 51-76 0-42-9-74-50-73" id="ba"/><g id="u"><use transform="matrix(0.06172839506172839,0,0,0.06172839506172839,0,0)" xlink:href="#aY"/><use transform="matrix(0.06172839506172839,0,0,0.06172839506172839,14.814814814814813,0)" xlink:href="#aZ"/><use transform="matrix(0.06172839506172839,0,0,0.06172839506172839,27.160493827160494,0)" xlink:href="#aZ"/><use transform="matrix(0.06172839506172839,0,0,0.06172839506172839,39.50617283950617,0)" xlink:href="#aM"/><use transform="matrix(0.06172839506172839,0,0,0.06172839506172839,44.382716049382715,0)" xlink:href="#aN"/><use transform="matrix(0.06172839506172839,0,0,0.06172839506172839,49.25925925925926,0)" xlink:href="#aI"/><use transform="matrix(0.06172839506172839,0,0,0.06172839506172839,61.60493827160494,0)" xlink:href="#ba"/></g><g id="v"><use transform="matrix(0.06172839506172839,0,0,0.06172839506172839,0,0)" xlink:href="#aH"/><use transform="matrix(0.06172839506172839,0,0,0.06172839506172839,11.11111111111111,0)" xlink:href="#aU"/><use transform="matrix(0.06172839506172839,0,0,0.06172839506172839,23.45679012345679,0)" xlink:href="#aV"/><use transform="matrix(0.06172839506172839,0,0,0.06172839506172839,29.62962962962963,0)" xlink:href="#aP"/></g><g id="w"><use transform="matrix(0.06172839506172839,0,0,0.06172839506172839,0,0)" xlink:href="#aW"/><use transform="matrix(0.06172839506172839,0,0,0.06172839506172839,8.641975308641975,0)" xlink:href="#aF"/><use transform="matrix(0.06172839506172839,0,0,0.06172839506172839,24.629629629629626,0)" xlink:href="#aW"/></g><path fill="#333" d="M185-189c-5-48-123-54-124 2 14 75 158 14 163 119 3 78-121 87-175 55-17-10-28-26-33-46l33-7c5 56 141 63 141-1 0-78-155-14-162-118-5-82 145-84 179-34 5 7 8 16 11 25" id="bb"/><g id="x"><use transform="matrix(0.06172839506172839,0,0,0.06172839506172839,0,0)" xlink:href="#bb"/><use transform="matrix(0.06172839506172839,0,0,0.06172839506172839,14.814814814814813,0)" xlink:href="#aS"/><use transform="matrix(0.06172839506172839,0,0,0.06172839506172839,25.925925925925924,0)" xlink:href="#aH"/><use transform="matrix(0.06172839506172839,0,0,0.06172839506172839,37.03703703703704,0)" xlink:href="#aP"/><use transform="matrix(0.06172839506172839,0,0,0.06172839506172839,43.20987654320988,0)" xlink:href="#aI"/><use transform="matrix(0.06172839506172839,0,0,0.06172839506172839,55.55555555555556,0)" xlink:href="#aT"/><use transform="matrix(0.06172839506172839,0,0,0.06172839506172839,74.01234567901234,0)" xlink:href="#bb"/><use transform="matrix(0.06172839506172839,0,0,0.06172839506172839,88.82716049382715,0)" xlink:href="#aI"/><use transform="matrix(0.06172839506172839,0,0,0.06172839506172839,101.17283950617283,0)" xlink:href="#aJ"/><use transform="matrix(0.06172839506172839,0,0,0.06172839506172839,108.51851851851852,0)" xlink:href="#aK"/><use transform="matrix(0.06172839506172839,0,0,0.06172839506172839,119.62962962962963,0)" xlink:href="#aN"/><use transform="matrix(0.06172839506172839,0,0,0.06172839506172839,124.50617283950618,0)" xlink:href="#aL"/><use transform="matrix(0.06172839506172839,0,0,0.06172839506172839,135.6172839506173,0)" xlink:href="#aI"/></g><path fill="#333" d="M84 4C-5 8 30-112 23-190h32v120c0 31 7 50 39 49 72-2 45-101 50-169h31l1 190h-30c-1-10 1-25-2-33-11 22-28 36-60 37" id="bc"/><path fill="#333" d="M106-169C34-169 62-67 57 0H25v-261h32l-1 103c12-21 28-36 61-36 89 0 53 116 60 194h-32v-121c2-32-8-49-39-48" id="bd"/><path fill="#333" d="M190 0L58-211 59 0H30v-248h39L202-35l-2-213h31V0h-41" id="be"/><g id="y"><use transform="matrix(0.06172839506172839,0,0,0.06172839506172839,0,0)" xlink:href="#aG"/><use transform="matrix(0.06172839506172839,0,0,0.06172839506172839,14.814814814814813,0)" xlink:href="#bc"/><use transform="matrix(0.06172839506172839,0,0,0.06172839506172839,27.160493827160494,0)" xlink:href="#aH"/><use transform="matrix(0.06172839506172839,0,0,0.06172839506172839,38.27160493827161,0)" xlink:href="#bd"/><use transform="matrix(0.06172839506172839,0,0,0.06172839506172839,50.617283950617285,0)" xlink:href="#be"/><use transform="matrix(0.06172839506172839,0,0,0.06172839506172839,66.60493827160494,0)" xlink:href="#aU"/><use transform="matrix(0.06172839506172839,0,0,0.06172839506172839,78.95061728395062,0)" xlink:href="#aP"/><use transform="matrix(0.06172839506172839,0,0,0.06172839506172839,85.12345679012346,0)" xlink:href="#aN"/><use transform="matrix(0.06172839506172839,0,0,0.06172839506172839,90,0)" xlink:href="#aV"/><use transform="matrix(0.06172839506172839,0,0,0.06172839506172839,96.17283950617283,0)" xlink:href="#aN"/><use transform="matrix(0.06172839506172839,0,0,0.06172839506172839,101.04938271604938,0)" xlink:href="#aL"/><use transform="matrix(0.06172839506172839,0,0,0.06172839506172839,112.1604938271605,0)" xlink:href="#aR"/><use transform="matrix(0.06172839506172839,0,0,0.06172839506172839,124.50617283950618,0)" xlink:href="#aP"/><use transform="matrix(0.06172839506172839,0,0,0.06172839506172839,130.679012345679,0)" xlink:href="#aN"/><use transform="matrix(0.06172839506172839,0,0,0.06172839506172839,135.55555555555554,0)" xlink:href="#aU"/><use transform="matrix(0.06172839506172839,0,0,0.06172839506172839,147.9012345679012,0)" xlink:href="#aO"/><use transform="matrix(0.06172839506172839,0,0,0.06172839506172839,160.24691358024688,0)" xlink:href="#bb"/><use transform="matrix(0.06172839506172839,0,0,0.06172839506172839,175.0617283950617,0)" xlink:href="#aI"/><use transform="matrix(0.06172839506172839,0,0,0.06172839506172839,187.40740740740736,0)" xlink:href="#aJ"/><use transform="matrix(0.06172839506172839,0,0,0.06172839506172839,194.75308641975303,0)" xlink:href="#aK"/><use transform="matrix(0.06172839506172839,0,0,0.06172839506172839,205.86419753086415,0)" xlink:href="#aN"/><use transform="matrix(0.06172839506172839,0,0,0.06172839506172839,210.74074074074068,0)" xlink:href="#aL"/><use transform="matrix(0.06172839506172839,0,0,0.06172839506172839,221.8518518518518,0)" xlink:href="#aI"/></g><path fill="#333" d="M86-200l42-18 12 35-44 11 32 37-32 21-26-44-26 44-32-21 33-37-44-11 12-35 42 18-3-48h38" id="bf"/><path fill="#333" d="M199 0l-22-63H83L61 0H9l90-248h61L250 0h-51zm-33-102l-36-108c-10 38-24 72-36 108h72" id="bg"/><g id="z"><use transform="matrix(0.06172839506172839,0,0,0.06172839506172839,0,0)" xlink:href="#bf"/><use transform="matrix(0.06172839506172839,0,0,0.06172839506172839,8.641975308641975,0)" xlink:href="#bg"/><use transform="matrix(0.06172839506172839,0,0,0.06172839506172839,24.629629629629626,0)" xlink:href="#bf"/></g><path fill="#333" d="M230 0l2-204L168 0h-37L68-204 70 0H24v-248h70l56 185 57-185h69V0h-46" id="bh"/><path fill="#333" d="M169-182c-1-43-94-46-97-3 18 66 151 10 154 114 3 95-165 93-204 36-6-8-10-19-12-30l50-8c3 46 112 56 116 5-17-69-150-10-154-114-4-87 153-88 188-35 5 8 8 18 10 28" id="bi"/><g id="A"><use transform="matrix(0.06172839506172839,0,0,0.06172839506172839,0,0)" xlink:href="#av"/><use transform="matrix(0.06172839506172839,0,0,0.06172839506172839,13.518518518518517,0)" xlink:href="#bh"/><use transform="matrix(0.06172839506172839,0,0,0.06172839506172839,31.9753086419753,0)" xlink:href="#bi"/></g><g id="B"><use transform="matrix(0.06172839506172839,0,0,0.06172839506172839,0,0)" xlink:href="#aG"/><use transform="matrix(0.06172839506172839,0,0,0.06172839506172839,14.814814814814813,0)" xlink:href="#bc"/><use transform="matrix(0.06172839506172839,0,0,0.06172839506172839,27.160493827160494,0)" xlink:href="#aH"/><use transform="matrix(0.06172839506172839,0,0,0.06172839506172839,38.27160493827161,0)" xlink:href="#bd"/></g><path fill="#333" d="M232-93c-1 65-40 97-104 97C67 4 28-28 28-90v-158h33c8 89-33 224 67 224 102 0 64-133 71-224h33v155" id="bj"/><g id="C"><use transform="matrix(0.06172839506172839,0,0,0.06172839506172839,0,0)" xlink:href="#bj"/><use transform="matrix(0.06172839506172839,0,0,0.06172839506172839,15.987654320987653,0)" xlink:href="#aZ"/><use transform="matrix(0.06172839506172839,0,0,0.06172839506172839,28.333333333333332,0)" xlink:href="#ba"/><use transform="matrix(0.06172839506172839,0,0,0.06172839506172839,40.67901234567901,0)" xlink:href="#aR"/><use transform="matrix(0.06172839506172839,0,0,0.06172839506172839,53.02469135802469,0)" xlink:href="#aP"/><use transform="matrix(0.06172839506172839,0,0,0.06172839506172839,59.19753086419753,0)" xlink:href="#aI"/><use transform="matrix(0.06172839506172839,0,0,0.06172839506172839,71.54320987654322,0)" xlink:href="#aH"/></g><path fill="#333" d="M240 0l2-218c-23 76-54 145-80 218h-23L58-218 59 0H30v-248h44l77 211c21-75 51-140 76-211h43V0h-30" id="bk"/><path fill="#333" d="M177-190C167-65 218 103 67 71c-23-6-38-20-44-43l32-5c15 47 100 32 89-28v-30C133-14 115 1 83 1 29 1 15-40 15-95c0-56 16-97 71-98 29-1 48 16 59 35 1-10 0-23 2-32h30zM94-22c36 0 50-32 50-73 0-42-14-75-50-75-39 0-46 34-46 75s6 73 46 73" id="bl"/><g id="D"><use transform="matrix(0.06172839506172839,0,0,0.06172839506172839,0,0)" xlink:href="#bk"/><use transform="matrix(0.06172839506172839,0,0,0.06172839506172839,18.456790123456788,0)" xlink:href="#aU"/><use transform="matrix(0.06172839506172839,0,0,0.06172839506172839,30.80246913580247,0)" xlink:href="#aO"/><use transform="matrix(0.06172839506172839,0,0,0.06172839506172839,43.148148148148145,0)" xlink:href="#aN"/><use transform="matrix(0.06172839506172839,0,0,0.06172839506172839,48.02469135802469,0)" xlink:href="#aP"/><use transform="matrix(0.06172839506172839,0,0,0.06172839506172839,54.19753086419753,0)" xlink:href="#aU"/><use transform="matrix(0.06172839506172839,0,0,0.06172839506172839,66.54320987654322,0)" xlink:href="#aJ"/><use transform="matrix(0.06172839506172839,0,0,0.06172839506172839,73.8888888888889,0)" xlink:href="#aN"/><use transform="matrix(0.06172839506172839,0,0,0.06172839506172839,78.76543209876544,0)" xlink:href="#aO"/><use transform="matrix(0.06172839506172839,0,0,0.06172839506172839,91.11111111111113,0)" xlink:href="#bl"/></g><path fill="#333" d="M182-130c37 4 62 22 62 59C244 23 116-4 24 0v-248c84 5 203-23 205 63 0 31-19 50-47 55zM76-148c40-3 101 13 101-30 0-44-60-28-101-31v61zm0 110c48-3 116 14 116-37 0-48-69-32-116-35v72" id="bm"/><g id="E"><use transform="matrix(0.06172839506172839,0,0,0.06172839506172839,0,0)" xlink:href="#bf"/><use transform="matrix(0.06172839506172839,0,0,0.06172839506172839,8.641975308641975,0)" xlink:href="#bm"/><use transform="matrix(0.06172839506172839,0,0,0.06172839506172839,24.629629629629626,0)" xlink:href="#bf"/></g><path fill="#333" d="M135-194c53 0 70 44 70 98 0 56-19 98-73 100-31 1-45-17-59-34 3 33 2 69 2 105H25l-1-265h48c2 10 0 23 3 31 11-24 29-35 60-35zM114-30c33 0 39-31 40-66 0-38-9-64-40-64-56 0-55 130 0 130" id="bn"/><path fill="#333" d="M123 10C108 53 80 86 19 72V37c35 8 53-11 59-39L3-190h52l48 148c12-52 28-100 44-148h51" id="bo"/><g id="F"><use transform="matrix(0.06172839506172839,0,0,0.06172839506172839,0,0)" xlink:href="#bn"/><use transform="matrix(0.06172839506172839,0,0,0.06172839506172839,13.518518518518517,0)" xlink:href="#aq"/><use transform="matrix(0.06172839506172839,0,0,0.06172839506172839,25.864197530864196,0)" xlink:href="#bo"/><use transform="matrix(0.06172839506172839,0,0,0.06172839506172839,38.20987654320987,0)" xlink:href="#ap"/><use transform="matrix(0.06172839506172839,0,0,0.06172839506172839,57.96296296296296,0)" xlink:href="#ah"/><use transform="matrix(0.06172839506172839,0,0,0.06172839506172839,70.30864197530865,0)" xlink:href="#al"/><use transform="matrix(0.06172839506172839,0,0,0.06172839506172839,83.82716049382717,0)" xlink:href="#ao"/></g><path fill="#333" d="M114-157C55-157 80-60 75 0H25v-261h50l-1 109c12-26 28-41 61-42 86-1 58 113 63 194h-50c-7-57 23-157-34-157" id="bp"/><g id="G"><use transform="matrix(0.06172839506172839,0,0,0.06172839506172839,0,0)" xlink:href="#bp"/><use transform="matrix(0.06172839506172839,0,0,0.06172839506172839,13.518518518518517,0)" xlink:href="#ak"/><use transform="matrix(0.06172839506172839,0,0,0.06172839506172839,27.037037037037035,0)" xlink:href="#az"/><use transform="matrix(0.06172839506172839,0,0,0.06172839506172839,39.382716049382715,0)" xlink:href="#ao"/></g><g id="H"><use transform="matrix(0.06172839506172839,0,0,0.06172839506172839,0,0)" xlink:href="#bf"/><use transform="matrix(0.06172839506172839,0,0,0.06172839506172839,8.641975308641975,0)" xlink:href="#aB"/><use transform="matrix(0.06172839506172839,0,0,0.06172839506172839,24.629629629629626,0)" xlink:href="#bf"/></g><g id="I"><use transform="matrix(0.06172839506172839,0,0,0.06172839506172839,0,0)" xlink:href="#aB"/><use transform="matrix(0.06172839506172839,0,0,0.06172839506172839,15.987654320987653,0)" xlink:href="#ar"/><use transform="matrix(0.06172839506172839,0,0,0.06172839506172839,22.160493827160494,0)" xlink:href="#ak"/><use transform="matrix(0.06172839506172839,0,0,0.06172839506172839,35.67901234567901,0)" xlink:href="#an"/><use transform="matrix(0.06172839506172839,0,0,0.06172839506172839,49.19753086419753,0)" xlink:href="#am"/></g><path fill="#333" d="M121-226c-27-7-43 5-38 36h38v33H83V0H34v-157H6v-33h28c-9-59 32-81 87-68v32" id="bq"/><path fill="#333" d="M12 0v-35l95-120H19v-35h142v35L67-36h103V0H12" id="br"/><g id="J"><use transform="matrix(0.06172839506172839,0,0,0.06172839506172839,0,0)" xlink:href="#bq"/><use transform="matrix(0.06172839506172839,0,0,0.06172839506172839,7.345679012345679,0)" xlink:href="#af"/><use transform="matrix(0.06172839506172839,0,0,0.06172839506172839,13.518518518518519,0)" xlink:href="#az"/><use transform="matrix(0.06172839506172839,0,0,0.06172839506172839,25.864197530864196,0)" xlink:href="#aj"/><use transform="matrix(0.06172839506172839,0,0,0.06172839506172839,38.20987654320987,0)" xlink:href="#aq"/><use transform="matrix(0.06172839506172839,0,0,0.06172839506172839,50.55555555555555,0)" xlink:href="#ar"/><use transform="matrix(0.06172839506172839,0,0,0.06172839506172839,56.72839506172839,0)" xlink:href="#af"/><use transform="matrix(0.06172839506172839,0,0,0.06172839506172839,62.901234567901234,0)" xlink:href="#br"/><use transform="matrix(0.06172839506172839,0,0,0.06172839506172839,74.01234567901234,0)" xlink:href="#aq"/><use transform="matrix(0.06172839506172839,0,0,0.06172839506172839,86.35802469135803,0)" xlink:href="#ao"/><use transform="matrix(0.06172839506172839,0,0,0.06172839506172839,93.70370370370371,0)" xlink:href="#af"/><use transform="matrix(0.06172839506172839,0,0,0.06172839506172839,99.87654320987654,0)" xlink:href="#ak"/><use transform="matrix(0.06172839506172839,0,0,0.06172839506172839,113.39506172839506,0)" xlink:href="#al"/></g><path fill="#333" d="M238-95c0 69-44 99-111 99C63 4 22-25 22-93v-155h51v151c-1 38 19 59 55 60 90 1 49-130 58-211h52v153" id="bs"/><g id="K"><use transform="matrix(0.06172839506172839,0,0,0.06172839506172839,0,0)" xlink:href="#bs"/><use transform="matrix(0.06172839506172839,0,0,0.06172839506172839,15.987654320987653,0)" xlink:href="#bn"/><use transform="matrix(0.06172839506172839,0,0,0.06172839506172839,29.50617283950617,0)" xlink:href="#am"/><use transform="matrix(0.06172839506172839,0,0,0.06172839506172839,43.02469135802469,0)" xlink:href="#aq"/><use transform="matrix(0.06172839506172839,0,0,0.06172839506172839,55.37037037037037,0)" xlink:href="#ao"/><use transform="matrix(0.06172839506172839,0,0,0.06172839506172839,62.716049382716044,0)" xlink:href="#ah"/><use transform="matrix(0.06172839506172839,0,0,0.06172839506172839,75.06172839506172,0)" xlink:href="#az"/></g><path fill="#333" d="M20 75v-336h95v34H67V41h48v34H20" id="bt"/><path fill="#333" d="M76-208v77h127v40H76V0H24v-248h183v40H76" id="bu"/><path fill="#333" d="M4 75V41h49v-268H4v-34h96V75H4" id="bv"/><g id="L"><use transform="matrix(0.06172839506172839,0,0,0.06172839506172839,0,0)" xlink:href="#bt"/><use transform="matrix(0.06172839506172839,0,0,0.06172839506172839,7.345679012345679,0)" xlink:href="#bu"/><use transform="matrix(0.06172839506172839,0,0,0.06172839506172839,20.864197530864196,0)" xlink:href="#av"/><use transform="matrix(0.06172839506172839,0,0,0.06172839506172839,34.382716049382715,0)" xlink:href="#aw"/><use transform="matrix(0.06172839506172839,0,0,0.06172839506172839,49.19753086419753,0)" xlink:href="#bv"/></g><g id="M"><use transform="matrix(0.06172839506172839,0,0,0.06172839506172839,0,0)" xlink:href="#aw"/><use transform="matrix(0.06172839506172839,0,0,0.06172839506172839,14.814814814814813,0)" xlink:href="#an"/><use transform="matrix(0.06172839506172839,0,0,0.06172839506172839,28.33333333333333,0)" xlink:href="#az"/><use transform="matrix(0.06172839506172839,0,0,0.06172839506172839,40.679012345679006,0)" xlink:href="#bp"/></g><g id="N"><use transform="matrix(0.06172839506172839,0,0,0.06172839506172839,0,0)" xlink:href="#az"/><use transform="matrix(0.06172839506172839,0,0,0.06172839506172839,12.345679012345679,0)" xlink:href="#ah"/><use transform="matrix(0.06172839506172839,0,0,0.06172839506172839,24.691358024691358,0)" xlink:href="#ae"/><use transform="matrix(0.06172839506172839,0,0,0.06172839506172839,33.33333333333333,0)" xlink:href="#ag"/><use transform="matrix(0.06172839506172839,0,0,0.06172839506172839,45.679012345679006,0)" xlink:href="#ah"/><use transform="matrix(0.06172839506172839,0,0,0.06172839506172839,58.02469135802468,0)" xlink:href="#ae"/></g><path fill="#333" d="M195-6C206 82 75 100 31 46c-4-6-6-13-8-21l49-6c3 16 16 24 34 25 40 0 42-37 40-79-11 22-30 35-61 35-53 0-70-43-70-97 0-56 18-96 73-97 30 0 46 14 59 34l2-30h47zm-90-29c32 0 41-27 41-63 0-35-9-62-40-62-32 0-39 29-40 63 0 36 9 62 39 62" id="bw"/><g id="O"><use transform="matrix(0.06172839506172839,0,0,0.06172839506172839,0,0)" xlink:href="#bh"/><use transform="matrix(0.06172839506172839,0,0,0.06172839506172839,18.456790123456788,0)" xlink:href="#ak"/><use transform="matrix(0.06172839506172839,0,0,0.06172839506172839,31.9753086419753,0)" xlink:href="#al"/><use transform="matrix(0.06172839506172839,0,0,0.06172839506172839,45.49382716049382,0)" xlink:href="#af"/><use transform="matrix(0.06172839506172839,0,0,0.06172839506172839,51.666666666666664,0)" xlink:href="#ao"/><use transform="matrix(0.06172839506172839,0,0,0.06172839506172839,59.01234567901234,0)" xlink:href="#ak"/><use transform="matrix(0.06172839506172839,0,0,0.06172839506172839,72.53086419753086,0)" xlink:href="#ae"/><use transform="matrix(0.06172839506172839,0,0,0.06172839506172839,81.17283950617283,0)" xlink:href="#af"/><use transform="matrix(0.06172839506172839,0,0,0.06172839506172839,87.34567901234567,0)" xlink:href="#al"/><use transform="matrix(0.06172839506172839,0,0,0.06172839506172839,100.86419753086419,0)" xlink:href="#bw"/></g><path fill="#333" d="M194 0L95-120 63-95V0H30v-248h33v124l119-124h40L117-140 236 0h-42" id="bx"/><path fill="#333" d="M143 0L79-87 56-68V0H24v-261h32v163l83-92h37l-77 82L181 0h-38" id="by"/><g id="P"><use transform="matrix(0.06172839506172839,0,0,0.06172839506172839,0,0)" xlink:href="#bx"/><use transform="matrix(0.06172839506172839,0,0,0.06172839506172839,14.814814814814813,0)" xlink:href="#by"/><use transform="matrix(0.06172839506172839,0,0,0.06172839506172839,25.925925925925924,0)" xlink:href="#aT"/><use transform="matrix(0.06172839506172839,0,0,0.06172839506172839,44.38271604938271,0)" xlink:href="#aD"/><use transform="matrix(0.06172839506172839,0,0,0.06172839506172839,60.37037037037036,0)" xlink:href="#aJ"/><use transform="matrix(0.06172839506172839,0,0,0.06172839506172839,67.71604938271604,0)" xlink:href="#aN"/><use transform="matrix(0.06172839506172839,0,0,0.06172839506172839,72.59259259259258,0)" xlink:href="#aK"/><use transform="matrix(0.06172839506172839,0,0,0.06172839506172839,83.7037037037037,0)" xlink:href="#aI"/><use transform="matrix(0.06172839506172839,0,0,0.06172839506172839,96.04938271604938,0)" xlink:href="#aJ"/></g><g id="Q"><use transform="matrix(0.06172839506172839,0,0,0.06172839506172839,0,0)" xlink:href="#aD"/><use transform="matrix(0.06172839506172839,0,0,0.06172839506172839,15.987654320987653,0)" xlink:href="#aJ"/><use transform="matrix(0.06172839506172839,0,0,0.06172839506172839,23.333333333333332,0)" xlink:href="#aN"/><use transform="matrix(0.06172839506172839,0,0,0.06172839506172839,28.209876543209873,0)" xlink:href="#aK"/><use transform="matrix(0.06172839506172839,0,0,0.06172839506172839,39.32098765432099,0)" xlink:href="#aI"/><use transform="matrix(0.06172839506172839,0,0,0.06172839506172839,51.666666666666664,0)" xlink:href="#aJ"/></g><g id="R"><use transform="matrix(0.06172839506172839,0,0,0.06172839506172839,0,0)" xlink:href="#aD"/><use transform="matrix(0.06172839506172839,0,0,0.06172839506172839,15.987654320987653,0)" xlink:href="#aI"/><use transform="matrix(0.06172839506172839,0,0,0.06172839506172839,28.333333333333332,0)" xlink:href="#aK"/><use transform="matrix(0.06172839506172839,0,0,0.06172839506172839,39.44444444444444,0)" xlink:href="#aN"/><use transform="matrix(0.06172839506172839,0,0,0.06172839506172839,44.32098765432099,0)" xlink:href="#aL"/><use transform="matrix(0.06172839506172839,0,0,0.06172839506172839,55.4320987654321,0)" xlink:href="#aI"/><use transform="matrix(0.06172839506172839,0,0,0.06172839506172839,67.77777777777779,0)" xlink:href="#bb"/><use transform="matrix(0.06172839506172839,0,0,0.06172839506172839,82.5925925925926,0)" xlink:href="#aI"/><use transform="matrix(0.06172839506172839,0,0,0.06172839506172839,94.93827160493828,0)" xlink:href="#aJ"/><use transform="matrix(0.06172839506172839,0,0,0.06172839506172839,102.28395061728396,0)" xlink:href="#aK"/><use transform="matrix(0.06172839506172839,0,0,0.06172839506172839,113.39506172839508,0)" xlink:href="#aN"/><use transform="matrix(0.06172839506172839,0,0,0.06172839506172839,118.27160493827162,0)" xlink:href="#aL"/><use transform="matrix(0.06172839506172839,0,0,0.06172839506172839,129.38271604938274,0)" xlink:href="#aI"/></g><path fill="#333" d="M137 0h-34L2-248h35l83 218 83-218h36" id="bz"/><g id="S"><use transform="matrix(0.06172839506172839,0,0,0.06172839506172839,0,0)" xlink:href="#bz"/><use transform="matrix(0.06172839506172839,0,0,0.06172839506172839,14.814814814814813,0)" xlink:href="#be"/><use transform="matrix(0.06172839506172839,0,0,0.06172839506172839,30.80246913580247,0)" xlink:href="#aF"/></g><g id="T"><use transform="matrix(0.06172839506172839,0,0,0.06172839506172839,0,0)" xlink:href="#bf"/><use transform="matrix(0.06172839506172839,0,0,0.06172839506172839,8.641975308641975,0)" xlink:href="#bg"/><use transform="matrix(0.06172839506172839,0,0,0.06172839506172839,24.629629629629626,0)" xlink:href="#bf"/></g><g id="U"><use transform="matrix(0.06172839506172839,0,0,0.06172839506172839,0,0)" xlink:href="#as"/><use transform="matrix(0.06172839506172839,0,0,0.06172839506172839,14.814814814814813,0)" xlink:href="#aC"/><use transform="matrix(0.06172839506172839,0,0,0.06172839506172839,30.80246913580247,0)" xlink:href="#aB"/></g><g id="V"><use transform="matrix(0.06172839506172839,0,0,0.06172839506172839,0,0)" xlink:href="#aj"/><use transform="matrix(0.06172839506172839,0,0,0.06172839506172839,12.345679012345679,0)" xlink:href="#ar"/><use transform="matrix(0.06172839506172839,0,0,0.06172839506172839,18.51851851851852,0)" xlink:href="#af"/><use transform="matrix(0.06172839506172839,0,0,0.06172839506172839,24.691358024691358,0)" xlink:href="#ah"/><use transform="matrix(0.06172839506172839,0,0,0.06172839506172839,37.03703703703704,0)" xlink:href="#al"/><use transform="matrix(0.06172839506172839,0,0,0.06172839506172839,50.55555555555556,0)" xlink:href="#ao"/></g><g id="W"><use transform="matrix(0.06172839506172839,0,0,0.06172839506172839,0,0)" xlink:href="#bz"/><use transform="matrix(0.06172839506172839,0,0,0.06172839506172839,14.814814814814813,0)" xlink:href="#be"/><use transform="matrix(0.06172839506172839,0,0,0.06172839506172839,30.80246913580247,0)" xlink:href="#aF"/></g><g id="X"><use transform="matrix(0.06172839506172839,0,0,0.06172839506172839,0,0)" xlink:href="#aC"/><use transform="matrix(0.06172839506172839,0,0,0.06172839506172839,15.987654320987653,0)" xlink:href="#av"/><use transform="matrix(0.06172839506172839,0,0,0.06172839506172839,29.50617283950617,0)" xlink:href="#aw"/></g><g id="Y"><use transform="matrix(0.06172839506172839,0,0,0.06172839506172839,0,0)" xlink:href="#az"/><use transform="matrix(0.06172839506172839,0,0,0.06172839506172839,12.345679012345679,0)" xlink:href="#ah"/><use transform="matrix(0.06172839506172839,0,0,0.06172839506172839,24.691358024691358,0)" xlink:href="#ae"/><use transform="matrix(0.06172839506172839,0,0,0.06172839506172839,33.33333333333333,0)" xlink:href="#ag"/><use transform="matrix(0.06172839506172839,0,0,0.06172839506172839,45.679012345679006,0)" xlink:href="#ah"/><use transform="matrix(0.06172839506172839,0,0,0.06172839506172839,58.02469135802468,0)" xlink:href="#ae"/></g></defs></g></svg>