<svg xmlns="http://www.w3.org/2000/svg" xmlns:xlink="http://www.w3.org/1999/xlink" xmlns:lucid="lucid" width="1440" height="940"><g transform="translate(120 -140)" lucid:page-tab-id="0_0"><path d="M582 160c-6.63 0-12 5.37-12 12v36c0 6.63 5.37 12 12 12h206c6.63 0 12-5.37 12-12v-36c0-6.63-5.37-12-12-12z" stroke="#000" stroke-width="2" fill="#fff"/><use xlink:href="#a" transform="matrix(1,0,0,1,578,168) translate(8.400000000000006 25.6)"/><path d="M582 300c-6.63 0-12 5.37-12 12v36c0 6.63 5.37 12 12 12h216c6.63 0 12-5.37 12-12v-36c0-6.63-5.37-12-12-12z" stroke="#000" stroke-width="2" fill="#fff"/><use xlink:href="#b" transform="matrix(1,0,0,1,578,308) translate(0.9250000000000114 25.6)"/><path d="M685.96 280.5h-2l.02-9.7h2zm.04-31.3h-2V222h2z" stroke="#000" stroke-width=".05"/><path d="M686 222.03h-2V221h2z"/><path d="M686.02 222.05H684v-1.08H686zm-2-1.03v.98H686v-.97z" stroke="#000" stroke-width=".05"/><path d="M684.96 295.76l-4.64-14.26h9.27z"/><path d="M684.96 299l-6-18.5h12zm-3.26-16.5l3.26 10.03 3.26-10.03z" stroke="#000" stroke-width=".05"/><use xlink:href="#c" transform="matrix(1,0,0,1,586.379674796748,249.2) translate(0 14.4)"/><path d="M582 440c-6.63 0-12 5.37-12 12v36c0 6.63 5.37 12 12 12h216c6.63 0 12-5.37 12-12v-36c0-6.63-5.37-12-12-12z" stroke="#000" stroke-width="2" fill="#fff"/><use xlink:href="#d" transform="matrix(1,0,0,1,578,448) translate(57.64999999999999 25.6)"/><path d="M691 420.5h-2v-17.48h2zm0-39.08h-2V362h2z" stroke="#000" stroke-width=".05"/><path d="M691 362.03h-2V361h2z"/><path d="M691.02 362.05H689v-1.07H691zm-2-1.03v.98H691v-.98z" stroke="#000" stroke-width=".05"/><path d="M690 435.76l-4.64-14.26h9.28z"/><path d="M690 439l-6-18.5h12zm-3.26-16.5l3.26 10.03 3.26-10.03z" stroke="#000" stroke-width=".05"/><use xlink:href="#e" transform="matrix(1,0,0,1,648.125,381.42222222222216) translate(0 14.4)"/><path d="M352 580c-6.63 0-12 5.37-12 12v36c0 6.63 5.37 12 12 12h216c6.63 0 12-5.37 12-12v-36c0-6.63-5.37-12-12-12z" stroke="#000" stroke-width="2" fill="#fff"/><use xlink:href="#f" transform="matrix(1,0,0,1,348,588) translate(17.17500000000001 25.6)"/><path d="M812 580c-6.63 0-12 5.37-12 12v36c0 6.63 5.37 12 12 12h216c6.63 0 12-5.37 12-12v-36c0-6.63-5.37-12-12-12z" stroke="#000" stroke-width="2" fill="#fff"/><use xlink:href="#g" transform="matrix(1,0,0,1,808,588) translate(18.67500000000001 25.6)"/><path d="M477.53 541H461v19.5h-2V539h18.53zm183.23 0h-18.53v-2h16.53v-37h2z" stroke="#000" stroke-width=".05"/><path d="M660.76 502.03h-2V501h2z"/><path d="M660.78 502.05h-2.05v-1.07h2.05zm-2-1.03v.98h1.95v-.98z" stroke="#000" stroke-width=".05"/><path d="M460 575.76l-4.64-14.26h9.28z"/><path d="M460 579l-6-18.5h12zm-3.26-16.5l3.26 10.03 3.26-10.03z" stroke="#000" stroke-width=".05"/><use xlink:href="#h" transform="matrix(1,0,0,1,477.5280487804878,529.2) translate(0 14.4)"/><path d="M921 560.5h-2v-3.05h2zm0-7.12h-2v-6.1h2zm0-10.17h-2V541h-1.9v-2h3.9zM730 541h-6.72v-1.38h1V539H730zm10.17 0h-6.1v-2h6.1zm172.87 0h-6.1v-2h6.1zm-187.76-5.44h-2v-6.1h2zm0-10.17h-2v-6.1h2zm0-10.18h-2v-6.1h2zm0-10.17h-2V502h2z" stroke="#c92d39" stroke-width=".05" fill="#c92d39"/><path d="M725.28 502.03h-2V501h2z" fill="#c92d39"/><path d="M725.3 502.05h-2.05v-1.07h2.05zm-2-1.03v.98h1.95v-.98z" stroke="#c92d39" stroke-width=".05" fill="#c92d39"/><path d="M920 575.76l-4.64-14.26h9.28z" fill="#c92d39"/><path d="M920 579l-6-18.5h12zm-3.26-16.5l3.26 10.03 3.26-10.03z" stroke="#c92d39" stroke-width=".05" fill="#c92d39"/><use xlink:href="#i" transform="matrix(1,0,0,1,741.2882113821138,529.2) translate(0 14.4)"/><path d="M352 720c-6.63 0-12 5.37-12 12v36c0 6.63 5.37 12 12 12h216c6.63 0 12-5.37 12-12v-36c0-6.63-5.37-12-12-12z" stroke="#000" stroke-width="2" fill="#fff"/><use xlink:href="#j" transform="matrix(1,0,0,1,348,728) translate(63.099999999999994 25.6)"/><path d="M461 700.5h-2v-9.7h2zm0-31.3h-2V642h2z" stroke="#000" stroke-width=".05"/><path d="M461 642.03h-2V641h2z"/><path d="M461.02 642.05h-2.04v-1.07h2.04zm-2-1.02v.97h1.96v-.98z" stroke="#000" stroke-width=".05"/><path d="M460 715.76l-4.64-14.26h9.28z"/><path d="M460 719l-6-18.5h12zm-3.26-16.5l3.26 10.03 3.26-10.03z" stroke="#000" stroke-width=".05"/><use xlink:href="#k" transform="matrix(1,0,0,1,423.575,669.2) translate(0 14.4)"/><path d="M652 720c-6.63 0-12 5.37-12 12v36c0 6.63 5.37 12 12 12h216c6.63 0 12-5.37 12-12v-36c0-6.63-5.37-12-12-12z" stroke="#000" stroke-width="2" fill="#e5e5e5"/><use xlink:href="#l" transform="matrix(1,0,0,1,648,728) translate(64.6 25.6)"/><path d="M992 720c-6.63 0-12 5.37-12 12v36c0 6.63 5.37 12 12 12h216c6.63 0 12-5.37 12-12v-36c0-6.63-5.37-12-12-12z" stroke="#000" stroke-width="2" fill="#e5e5e5"/><use xlink:href="#m" transform="matrix(1,0,0,1,988,728) translate(10.700000000000017 25.6)"/><path d="M761 700.5h-2v-2.93h2zm0-6.84h-2v-5.87h2zm.98-12.66H761v2.88h-2V679h2.98zm126.22 0h-5.02v-2h3.02v-.84h2zm-8.93 0h-5.87v-2h5.87zm-9.78 0h-5.87v-2h5.86zm-78.2 0h-5.86v-2h5.86zm-9.77 0h-5.87v-2h5.87zm-9.77 0h-5.87v-2h5.86zm87.96 0h-4.7v-2h4.7zm28.48-6.75h-2v-5.86h2zm0-9.77h-2v-5.86h2zm0-9.77h-2v-5.86h2zm0-9.77h-2V642h2z" stroke="#c92d39" stroke-width=".05" fill="#c92d39"/><path d="M888.2 642.03h-2V641h2z" fill="#c92d39"/><path d="M888.23 642.05h-2.05v-1.07h2.05zm-2-1.02v.97h1.95v-.98z" stroke="#c92d39" stroke-width=".05" fill="#c92d39"/><path d="M760 715.76l-4.64-14.26h9.28z" fill="#c92d39"/><path d="M760 719l-6-18.5h12zm-3.26-16.5l3.26 10.03 3.26-10.03z" stroke="#c92d39" stroke-width=".05" fill="#c92d39"/><use xlink:href="#n" transform="matrix(1,0,0,1,792.1760840108402,658.4) translate(0 14.4)"/><use xlink:href="#o" transform="matrix(1,0,0,1,792.1760840108402,658.4) translate(0 36)"/><path d="M1101 700.5h-2v-3.05h2zm0-7.12h-2v-6.1h2zm0-10.18h-2V681h-1.9v-2h3.9zM970.92 681h-6.76v-1.35h1V679h5.76zm10.17 0H975v-2h6.1zm10.17 0h-6.1v-2h6.1zm4.8 0h-.73v-2h.74zm86.78 0h-6.1v-2h6.1zm10.17 0h-6.1v-2h6.1zm-20.35 0h-3.6v-2h3.6zm-106.5-5.42h-2v-6.1h2zm0-10.18h-2v-6.1h2zm0-10.17h-2v-6.1h2zm0-10.18h-2V642h2z" stroke="#c92d39" stroke-width=".05" fill="#c92d39"/><path d="M966.16 642.03h-2V641h2z" fill="#c92d39"/><path d="M966.2 642.05h-2.06v-1.07h2.05zm-2-1.02v.97h1.94v-.98z" stroke="#c92d39" stroke-width=".05" fill="#c92d39"/><path d="M1100 715.76l-4.64-14.26h9.28z" fill="#c92d39"/><path d="M1100 719l-6-18.5h12zm-3.26-16.5l3.26 10.03 3.26-10.03z" stroke="#c92d39" stroke-width=".05" fill="#c92d39"/><use xlink:href="#n" transform="matrix(1,0,0,1,996.0821138211381,658.4) translate(0 14.4)"/><use xlink:href="#p" transform="matrix(1,0,0,1,996.0821138211381,658.4) translate(0 36)"/><path d="M152 860c-6.63 0-12 5.37-12 12v36c0 6.63 5.37 12 12 12h216c6.63 0 12-5.37 12-12v-36c0-6.63-5.37-12-12-12z" stroke="#000" stroke-width="2" fill="#fff"/><use xlink:href="#q" transform="matrix(1,0,0,1,148,868) translate(0.20000000000001705 25.6)"/><path d="M261 840.5h-2v-3h2zm0-7h-2v-5.98h2zm0-9.98h-2v-6h2zm0-9.98h-2v-6h2zm0-9.98h-2v-6h2zm0-10h-2v-5.98h2zm0-9.97h-2v-6h2zm0-10h-2v-6h2zm0-9.98h-2v-6h2zm0-10h-2v-5.98h2zm0-9.97h-2v-6h2zm0-9.98h-2v-6h2zm0-10h-2v-5.98h2zm0-9.97h-2v-6h2zm0-10h-2v-5.98h2zm0-9.97h-2v-6h2zm0-10h-2v-5.98h2zm0-9.97h-2v-6h2zm0-10h-2v-5.98h2zm0-9.97h-2v-6h2zm0-10h-2v-5.98h2zm0-9.98h-2v-6h2zm0-9.98h-2v-6h2zm0-10h-2v-5.98h2zm0-9.97h-2v-6h2zm0-10h-2v-5.98h2zm0-9.97h-2v-6h2zm0-9.98h-2v-6h2zm0-10h-2v-5.98h2zm0-9.97h-2v-6h2zm0-10h-2v-5.98h2zm0-9.97h-2v-6h2zm0-10h-2V518h2zm0-9.97h-2v-5.98h2zm0-9.97h-2v-6h2zm0-10h-2v-5.98h2zm0-9.97h-2v-6h2zm0-10h-2v-5.98h2zm0-9.97h-2v-6h2zm0-10h-2v-6h2zm0-9.98h-2v-6h2zm0-10h-2v-5.98h2zm0-9.97h-2v-6h2zm0-9.98h-2v-6h2zm0-10h-2v-5.98h2zm0-9.97h-2v-6h2zm0-10h-2v-5.98h2zm0-9.97h-2v-6h2zm0-10h-2v-5.98h2zm0-9.97h-2v-6h2zm0-9.98h-2v-6h2zm0-10h-2v-5.98h2zm0-9.97h-2v-5.98h2zm0-9.98h-2v-6h2zm0-9.98h-2v-6h2zm0-10h-2v-5.98h2zm0-9.97h-2v-6h2zm0-9.98h-2v-6h2zm0-10h-2v-6h2zm0-9.98h-2v-6h2zm0-10h-2v-5.98h2zm0-9.97h-2v-6h2zm0-10h-2v-5.98h2zm0-9.97h-2v-6h2zm0-10h-2v-5.98h2zm.48-13.48H261v3.5h-2V189h2.48zM568 191h-3v-2h3zm-7 0h-5.98v-2h6zm-9.97 0h-6v-2h6zm-10 0h-5.98v-2h6zm-9.97 0h-6v-2h6zm-10 0h-5.98v-2h6zm-9.97 0h-6v-2h6zm-10 0h-6v-2h6zm-9.98 0h-6v-2h6zm-9.98 0h-6v-2h6zm-10 0h-5.98v-2h6zm-9.97 0h-6v-2h6zm-10 0h-5.98v-2h5.98zm-9.97 0h-6v-2h6zm-10 0h-5.98v-2h6zm-9.97 0h-6v-2h6zm-9.98 0h-6v-2h6zm-10 0h-5.98v-2h6zm-9.97 0h-6v-2h6zm-10 0h-5.98v-2h6zm-9.97 0h-5.98v-2h6zm-9.98 0h-6v-2h6zm-9.98 0h-6v-2h6zm-9.98 0h-6v-2h6zm-10 0h-5.98v-2h6zm-9.97 0h-6v-2h6zm-10 0h-6v-2h6zm-9.98 0h-6v-2h6zm-10 0h-5.98v-2h6zm-9.97 0h-6v-2h6zm-10 0h-5.98v-2h6z" stroke="#c92d39" stroke-width=".05" fill="#c92d39"/><path d="M569 191h-1.03v-2H569z" fill="#c92d39"/><path d="M569.02 191.03h-1.07v-2.06h1.07zm-1.02-2v1.94h.98v-1.94z" stroke="#c92d39" stroke-width=".05" fill="#c92d39"/><path d="M260 855.76l-4.64-14.26h9.28z" fill="#c92d39"/><path d="M260 859l-6-18.5h12zm-3.26-16.5l3.26 10.03 3.26-10.03zM261 840.5h-2v-3h2zm0-7h-2v-5.98h2zm0-9.97h-2v-6h2zm0-9.98h-2v-6h2zm0-9.98h-2v-6h2zm0-10h-2v-5.97h2zm0-9.97h-2v-6h2zm0-9.98h-2v-6h2zm0-9.98h-2v-6h2zm0-9.98h-2v-6h2zm0-9.98h-2v-6h2zm0-10h-2v-5.97h2zm0-9.97h-2v-5.98h2zm0-9.97h-2v-6h2zm0-9.98h-2v-6h2zm0-9.98h-2v-6h2zm0-9.98h-2v-6h2zm0-10h-2v-6h2zm0-9.98h-2v-6h2zm0-9.98h-2v-6h2zm0-9.98h-2v-6h2zm0-9.98h-2v-6h2zm0-9.98h-2v-6h2zm0-10h-2v-5.98h2zm0-9.97h-2v-6h2zm0-9.98h-2v-6h2zm0-9.98h-2v-6h2zm0-9.98h-2v-6h2zm0-10h-2v-5.98h2zm0-9.98h-2v-6h2zm0-9.98h-2v-6h2zm0-9.98h-2v-6h2zm0-9.98h-2v-6h2zm0-9.98h-2v-6h2zm0-9.98h-2v-6h2zm0-10h-2v-5.98h2zm0-9.97h-2v-6h2zm0-9.98h-2v-6h2zm0-9.98h-2v-6h2zm0-10h-2v-5.98h2zm0-9.97h-2v-6h2zm0-10h-2v-5.98h2zm0-9.97h-2v-6h2zm0-9.98h-2v-6h2zm0-9.98h-2v-6h2zm0-9.98h-2v-6h2zm0-9.98h-2v-6h2zm0-10h-2v-5.98h2zm0-9.97h-2v-6h2zm0-9.98h-2v-6h2zm0-10h-2v-5.98h2zm.56-13.4H261v3.43h-2V329h2.56zM568 331h-3v-2h3zm-7 0h-5.98v-2h6zm-9.97 0h-6v-2h6zm-9.98 0h-6v-2h6zm-9.98 0h-6v-2h6zm-9.98 0h-6v-2h6zm-10 0h-5.98v-2h5.98zm-9.98 0h-6v-2h6zm-9.98 0h-6v-2h6zm-9.98 0h-6v-2h6zm-9.98 0h-6v-2h6zm-9.98 0h-6v-2h6zm-10 0h-5.97v-2h5.98zm-9.97 0h-6v-2h6zm-9.98 0h-6v-2h6zm-9.98 0h-6v-2h6zm-9.98 0h-6v-2h6zm-10 0h-5.98v-2h6zm-9.98 0h-5.98v-2h5.98zm-9.98 0h-6v-2h6zm-9.98 0h-6v-2h6zm-9.98 0h-6v-2h6zm-9.98 0h-6v-2h6zm-9.98 0h-6v-2h6zm-10 0h-5.97v-2h5.98zm-9.97 0h-6v-2h6zm-9.98 0h-6v-2h6zm-9.98 0h-6v-2h6zm-10 0h-5.98v-2h6zm-9.97 0h-6v-2h6zm-10 0h-5.98v-2h6z" stroke="#c92d39" stroke-width=".05" fill="#c92d39"/><path d="M569 331h-1.03v-2H569z" fill="#c92d39"/><path d="M569.02 331.02h-1.07v-2.04h1.07zm-1.02-2v1.96h.98v-1.96z" stroke="#c92d39" stroke-width=".05" fill="#c92d39"/><path d="M260 855.76l-4.64-14.26h9.28z" fill="#c92d39"/><path d="M260 859l-6-18.5h12zm-3.26-16.5l3.26 10.03 3.26-10.03z" stroke="#c92d39" stroke-width=".05" fill="#c92d39"/><path d="M-88 1000c-6.63 0-12 5.37-12 12v36c0 6.63 5.37 12 12 12h216c6.63 0 12-5.37 12-12v-36c0-6.63-5.37-12-12-12z" stroke="#000" stroke-width="2" fill="#e5e5e5"/><use xlink:href="#q" transform="matrix(1,0,0,1,-92,1008) translate(0.20000000000001705 25.6)"/><path d="M392 1000c-6.63 0-12 5.37-12 12v36c0 6.63 5.37 12 12 12h216c6.63 0 12-5.37 12-12v-36c0-6.63-5.37-12-12-12z" stroke="#000" stroke-width="2" fill="#e5e5e5"/><use xlink:href="#q" transform="matrix(1,0,0,1,388,1008) translate(0.20000000000001705 25.6)"/><path d="M21 980.5h-2v-2.98h2zm0-6.96h-2v-5.96h2zM22.36 961H21v2.6h-2V959h3.36zm198.58 0h-5.74v-2h3.74v-.22h2zm-193.3 0h-1.3v-2h1.3zm193.3-6.2h-2v-5.96h2zm0-9.94h-2v-5.96h2zm0-9.94h-2v-5.96h2zm0-9.94h-2V922h2z" stroke="#c92d39" stroke-width=".05" fill="#c92d39"/><path d="M220.94 922.03h-2V921h2z" fill="#c92d39"/><path d="M220.97 922.05h-2.05v-1.07h2.05zm-2-1.02v.97h1.95v-.98z" stroke="#c92d39" stroke-width=".05" fill="#c92d39"/><path d="M20 995.76l-4.64-14.26h9.28z" fill="#c92d39"/><path d="M20 999l-6-18.5h12zm-3.26-16.5L20 992.53l3.26-10.03z" stroke="#c92d39" stroke-width=".05" fill="#c92d39"/><use xlink:href="#r" transform="matrix(1,0,0,1,27.646815718157058,949.2) translate(0 14.4)"/><path d="M501 980.5h-2v-3h2zm0-7.02h-2v-6h2zm0-10.02h-2V961h-1.55v-2H501zM303 961h-6.1v-1.92h1V959h5.1zm-4.1-5.92h-2v-6.02h2zm0-10.03h-2v-6h2zm0-10.02h-2v-6h2zm0-10.02h-2v-3h2z" stroke="#c92d39" stroke-width=".05" fill="#c92d39"/><path d="M298.9 922.03h-2V921h2z" fill="#c92d39"/><path d="M298.93 922.05h-2.05v-1.07h2.05zm-2-1.02v.97h1.95v-.98z" stroke="#c92d39" stroke-width=".05" fill="#c92d39"/><path d="M500 995.76l-4.64-14.26h9.28z" fill="#c92d39"/><path d="M500 999l-6-18.5h12zm-3.26-16.5l3.26 10.03 3.26-10.03z" stroke="#c92d39" stroke-width=".05" fill="#c92d39"/><use xlink:href="#s" transform="matrix(1,0,0,1,304.1278455284552,949.2) translate(0 14.4)"/><path d="M1072 440c-6.63 0-12 5.37-12 12v36c0 6.63 5.37 12 12 12h216c6.63 0 12-5.37 12-12v-36c0-6.63-5.37-12-12-12z" stroke="#000" stroke-width="2" fill="#e5e5e5"/><use xlink:href="#t" transform="matrix(1,0,0,1,1068,448) translate(9.225000000000009 25.6)"/><path d="M814.98 471H812v-2h2.98zm9.94 0h-5.97v-2h5.97zm198.7 0h-5.97v-2h5.96zm9.92 0h-5.96v-2h5.96zm6.96 0h-2.98v-2h2.98z" stroke="#0c7cba" stroke-width=".05" fill="#0c7cba"/><path d="M812.03 471H811v-2h1.03z" fill="#0c7cba"/><path d="M812.05 471.02h-1.07v-2.04h1.07zm-1.02-2v1.96h.97v-1.96z" stroke="#0c7cba" stroke-width=".05" fill="#0c7cba"/><path d="M1055.76 470l-14.26 4.64v-9.28z" fill="#0c7cba"/><path d="M1059 470l-18.5 6v-12zm-16.5 3.26l10.03-3.26-10.03-3.26z" stroke="#0c7cba" stroke-width=".05" fill="#0c7cba"/><use xlink:href="#u" transform="matrix(1,0,0,1,827.4773821922696,458.8) translate(0 14.933333333333335)"/><path d="M338 750h-2.97m-3.97 0h-5.95m-3.95 0h-5.95m-3.96 0h-5.95m-3.97 0h-5.95m-3.96 0h-5.95m-3.97 0h-5.94m-3.97 0h-5.96m-3.96 0H260v4.27m0 3.96v5.95m0 3.96v5.95m0 3.95V784m0 3.97v5.94m0 3.98v5.94m0 3.97v5.94m0 3.96v5.95m0 3.96v5.96m0 3.96v2.98" stroke="#c92d39" stroke-width="2" fill="none"/><path d="M339 751h-1.03v-2H339z" stroke="#c92d39" stroke-width=".05" fill="#c92d39"/><path d="M260 855.76l-4.64-14.26h9.28z" stroke="#c92d39" stroke-width="2" fill="#c92d39"/><path d="M338 610h-3m-3.97 0h-5.97m-3.98 0h-5.97m-3.97 0h-5.97m-3.98 0h-5.97m-3.97 0h-5.97m-3.98 0h-5.97m-3.98 0h-5.97m-3.98 0H260v4.6m0 3.98v5.97m0 3.98v5.97m0 3.98v5.97m0 3.98v5.97m0 3.98v5.98m0 3.98v5.97m0 4v5.96m0 3.98v5.97m0 4v5.96m0 3.98v5.97m0 4v5.96m0 4V734m0 3.98v5.97m0 3.98v5.97m0 3.98v5.97m0 3.98v5.97m0 3.98v5.97m0 3.98v5.98m0 3.98v5.98m0 3.98v5.97m0 3.98v5.98m0 3.98v5.97m0 3.98v3" stroke="#c92d39" stroke-width="2" fill="none"/><path d="M339 611h-1.03v-2H339z" stroke="#c92d39" stroke-width=".05" fill="#c92d39"/><path d="M260 855.76l-4.64-14.26h9.28z" stroke="#c92d39" stroke-width="2" fill="#c92d39"/><path d="M261 840.5h-2v-3h2zm0-7h-2v-5.97h2zm0-9.96h-2v-6h2zm0-9.98h-2v-6h2zm0-9.98h-2v-6h2zm0-9.98h-2v-5.98h2zm0-9.98h-2v-5.98h2zm0-9.97h-2v-6h2zm0-9.98h-2v-6h2zm0-9.98h-2v-6h2zm0-10h-2v-5.97h2zm0-9.97h-2v-5.98h2zm0-9.97h-2v-6h2zm0-9.98h-2v-6h2zm0-9.98h-2v-6h2zm0-9.98h-2v-5.98h2zm0-9.98h-2v-5.98h2zm0-9.97h-2v-6h2zm0-9.98h-2v-6h2zm0-10h-2v-5.98h2zm0-9.97h-2v-5.98h2zm0-9.97h-2v-6h2zm0-9.98h-2v-6h2zm0-9.98h-2v-6h2zm0-9.98h-2v-6h2zm0-9.98h-2v-5.98h2zm0-9.97h-2v-6h2zm0-9.98h-2v-6h2zm0-10h-2v-5.98h2zm0-9.97h-2v-5.98h2zm0-9.98h-2v-5.98h2zm0-9.97h-2v-6h2zm0-9.98h-2v-6h2zm0-9.98h-2v-6h2zm0-9.98h-2v-5.98h2zm0-9.98h-2v-5.98h2zm0-9.97h-2v-6h2zm.68-13.3H261v3.3h-2V469h2.68zM568 471h-3v-2h3zm-6.98 0h-6v-2h6zm-9.98 0h-6v-2h6zm-9.98 0h-6v-2h6zm-9.98 0h-6v-2h6zm-9.98 0h-5.98v-2h5.98zm-9.97 0h-6v-2h6zm-9.98 0h-6v-2h6zm-9.98 0h-6v-2h6zm-9.98 0h-6v-2h6zm-10 0h-5.97v-2h5.98zm-9.96 0h-6v-2h6zm-9.98 0h-6v-2h6zm-9.98 0h-6v-2h6zm-9.98 0h-5.98v-2h5.98zm-9.98 0h-5.98v-2h5.98zm-9.97 0h-6v-2h6zm-9.98 0h-6v-2h6zm-9.98 0h-6v-2h6zm-10 0h-5.97v-2h5.98zm-9.96 0h-6v-2h6zm-9.98 0h-6v-2h6zm-9.98 0h-6v-2h6zm-9.98 0h-6v-2h6zm-9.98 0h-5.98v-2h5.98zm-9.97 0h-6v-2h6zm-9.98 0h-6v-2h6zm-9.98 0h-6v-2h6zm-10 0h-5.97v-2h5.98zm-9.97 0h-5.98v-2h5.98zm-9.97 0h-6v-2h6z" stroke="#c92d39" stroke-width=".05" fill="#c92d39"/><path d="M569 471h-1.03v-2H569z" fill="#c92d39"/><path d="M569.02 471.02h-1.07v-2.04h1.07zm-1.02-2v1.96h.98v-1.96z" stroke="#c92d39" stroke-width=".05" fill="#c92d39"/><path d="M260 855.76l-4.64-14.26h9.28z" fill="#c92d39"/><path d="M260 859l-6-18.5h12zm-3.26-16.5l3.26 10.03 3.26-10.03z" stroke="#c92d39" stroke-width=".05" fill="#c92d39"/><defs><path d="M190 0L58-211 59 0H30v-248h39L202-35l-2-213h31V0h-41" id="v"/><path d="M30 0v-248h187v28H63v79h144v27H63v87h162V0H30" id="w"/><path d="M30-248c118-7 216 8 213 122C240-48 200 0 122 0H30v-248zM63-27c89 8 146-16 146-99s-60-101-146-95v194" id="x"/><path d="M-5 72V49h209v23H-5" id="y"/><path d="M212-179c-10-28-35-45-73-45-59 0-87 40-87 99 0 60 29 101 89 101 43 0 62-24 78-52l27 14C228-24 195 4 139 4 59 4 22-46 18-125c-6-104 99-153 187-111 19 9 31 26 39 46" id="z"/><path d="M140-251c81 0 123 46 123 126C263-46 219 4 140 4 59 4 17-45 17-125s42-126 123-126zm0 227c63 0 89-41 89-101s-29-99-89-99c-61 0-89 39-89 99S79-25 140-24" id="A"/><path d="M63-220v92h138v28H63V0H30v-248h175v28H63" id="B"/><path d="M33 0v-248h34V0H33" id="C"/><path d="M233-177c-1 41-23 64-60 70L243 0h-38l-65-103H63V0H30v-248c88 3 205-21 203 71zM63-129c60-2 137 13 137-47 0-61-80-42-137-45v92" id="D"/><path d="M240 0l2-218c-23 76-54 145-80 218h-23L58-218 59 0H30v-248h44l77 211c21-75 51-140 76-211h43V0h-30" id="E"/><path d="M205 0l-28-72H64L36 0H1l101-248h38L239 0h-34zm-38-99l-47-123c-12 45-31 82-46 123h93" id="F"/><path d="M127-220V0H93v-220H8v-28h204v28h-85" id="G"/><g id="a"><use transform="matrix(0.05,0,0,0.05,0,0)" xlink:href="#v"/><use transform="matrix(0.05,0,0,0.05,12.950000000000001,0)" xlink:href="#w"/><use transform="matrix(0.05,0,0,0.05,24.950000000000003,0)" xlink:href="#w"/><use transform="matrix(0.05,0,0,0.05,36.95,0)" xlink:href="#x"/><use transform="matrix(0.05,0,0,0.05,49.900000000000006,0)" xlink:href="#y"/><use transform="matrix(0.05,0,0,0.05,59.900000000000006,0)" xlink:href="#z"/><use transform="matrix(0.05,0,0,0.05,72.85000000000001,0)" xlink:href="#A"/><use transform="matrix(0.05,0,0,0.05,86.85000000000001,0)" xlink:href="#v"/><use transform="matrix(0.05,0,0,0.05,99.80000000000001,0)" xlink:href="#B"/><use transform="matrix(0.05,0,0,0.05,110.75,0)" xlink:href="#C"/><use transform="matrix(0.05,0,0,0.05,115.75,0)" xlink:href="#D"/><use transform="matrix(0.05,0,0,0.05,128.70000000000002,0)" xlink:href="#E"/><use transform="matrix(0.05,0,0,0.05,143.65,0)" xlink:href="#F"/><use transform="matrix(0.05,0,0,0.05,154.3,0)" xlink:href="#G"/><use transform="matrix(0.05,0,0,0.05,165.25,0)" xlink:href="#C"/><use transform="matrix(0.05,0,0,0.05,170.25,0)" xlink:href="#A"/><use transform="matrix(0.05,0,0,0.05,184.25,0)" xlink:href="#v"/></g><path d="M185-189c-5-48-123-54-124 2 14 75 158 14 163 119 3 78-121 87-175 55-17-10-28-26-33-46l33-7c5 56 141 63 141-1 0-78-155-14-162-118-5-82 145-84 179-34 5 7 8 16 11 25" id="H"/><g id="b"><use transform="matrix(0.05,0,0,0.05,0,0)" xlink:href="#z"/><use transform="matrix(0.05,0,0,0.05,12.950000000000001,0)" xlink:href="#A"/><use transform="matrix(0.05,0,0,0.05,26.950000000000003,0)" xlink:href="#v"/><use transform="matrix(0.05,0,0,0.05,39.900000000000006,0)" xlink:href="#B"/><use transform="matrix(0.05,0,0,0.05,50.85000000000001,0)" xlink:href="#C"/><use transform="matrix(0.05,0,0,0.05,55.85,0)" xlink:href="#D"/><use transform="matrix(0.05,0,0,0.05,68.80000000000001,0)" xlink:href="#E"/><use transform="matrix(0.05,0,0,0.05,83.75000000000001,0)" xlink:href="#F"/><use transform="matrix(0.05,0,0,0.05,94.40000000000002,0)" xlink:href="#G"/><use transform="matrix(0.05,0,0,0.05,105.35000000000002,0)" xlink:href="#C"/><use transform="matrix(0.05,0,0,0.05,110.35000000000002,0)" xlink:href="#A"/><use transform="matrix(0.05,0,0,0.05,124.35000000000002,0)" xlink:href="#v"/><use transform="matrix(0.05,0,0,0.05,137.3,0)" xlink:href="#y"/><use transform="matrix(0.05,0,0,0.05,147.3,0)" xlink:href="#H"/><use transform="matrix(0.05,0,0,0.05,159.3,0)" xlink:href="#w"/><use transform="matrix(0.05,0,0,0.05,171.3,0)" xlink:href="#v"/><use transform="matrix(0.05,0,0,0.05,184.25,0)" xlink:href="#x"/><use transform="matrix(0.05,0,0,0.05,197.2,0)" xlink:href="#w"/><use transform="matrix(0.05,0,0,0.05,209.19999999999996,0)" xlink:href="#x"/></g><g id="c"><use transform="matrix(0.05,0,0,0.05,0,0)" xlink:href="#H"/><use transform="matrix(0.05,0,0,0.05,12,0)" xlink:href="#w"/><use transform="matrix(0.05,0,0,0.05,24,0)" xlink:href="#v"/><use transform="matrix(0.05,0,0,0.05,36.95,0)" xlink:href="#x"/><use transform="matrix(0.05,0,0,0.05,49.900000000000006,0)" xlink:href="#y"/><use transform="matrix(0.05,0,0,0.05,59.900000000000006,0)" xlink:href="#z"/><use transform="matrix(0.05,0,0,0.05,72.85000000000001,0)" xlink:href="#A"/><use transform="matrix(0.05,0,0,0.05,86.85000000000001,0)" xlink:href="#v"/><use transform="matrix(0.05,0,0,0.05,99.80000000000001,0)" xlink:href="#B"/><use transform="matrix(0.05,0,0,0.05,110.75,0)" xlink:href="#C"/><use transform="matrix(0.05,0,0,0.05,115.75,0)" xlink:href="#D"/><use transform="matrix(0.05,0,0,0.05,128.70000000000002,0)" xlink:href="#E"/><use transform="matrix(0.05,0,0,0.05,143.65,0)" xlink:href="#F"/><use transform="matrix(0.05,0,0,0.05,154.3,0)" xlink:href="#G"/><use transform="matrix(0.05,0,0,0.05,165.25,0)" xlink:href="#C"/><use transform="matrix(0.05,0,0,0.05,170.25,0)" xlink:href="#A"/><use transform="matrix(0.05,0,0,0.05,184.25,0)" xlink:href="#v"/></g><g id="d"><use transform="matrix(0.05,0,0,0.05,0,0)" xlink:href="#z"/><use transform="matrix(0.05,0,0,0.05,12.950000000000001,0)" xlink:href="#A"/><use transform="matrix(0.05,0,0,0.05,26.950000000000003,0)" xlink:href="#v"/><use transform="matrix(0.05,0,0,0.05,39.900000000000006,0)" xlink:href="#B"/><use transform="matrix(0.05,0,0,0.05,50.85000000000001,0)" xlink:href="#C"/><use transform="matrix(0.05,0,0,0.05,55.85,0)" xlink:href="#D"/><use transform="matrix(0.05,0,0,0.05,68.80000000000001,0)" xlink:href="#E"/><use transform="matrix(0.05,0,0,0.05,83.75000000000001,0)" xlink:href="#w"/><use transform="matrix(0.05,0,0,0.05,95.75000000000001,0)" xlink:href="#x"/></g><g id="e"><use transform="matrix(0.05,0,0,0.05,0,0)" xlink:href="#z"/><use transform="matrix(0.05,0,0,0.05,12.950000000000001,0)" xlink:href="#A"/><use transform="matrix(0.05,0,0,0.05,26.950000000000003,0)" xlink:href="#v"/><use transform="matrix(0.05,0,0,0.05,39.900000000000006,0)" xlink:href="#B"/><use transform="matrix(0.05,0,0,0.05,50.85000000000001,0)" xlink:href="#C"/><use transform="matrix(0.05,0,0,0.05,55.85,0)" xlink:href="#D"/><use transform="matrix(0.05,0,0,0.05,68.80000000000001,0)" xlink:href="#E"/></g><path d="M30-248c87 1 191-15 191 75 0 78-77 80-158 76V0H30v-248zm33 125c57 0 124 11 124-50 0-59-68-47-124-48v98" id="I"/><g id="f"><use transform="matrix(0.05,0,0,0.05,0,0)" xlink:href="#F"/><use transform="matrix(0.05,0,0,0.05,12,0)" xlink:href="#z"/><use transform="matrix(0.05,0,0,0.05,24.950000000000003,0)" xlink:href="#z"/><use transform="matrix(0.05,0,0,0.05,37.900000000000006,0)" xlink:href="#w"/><use transform="matrix(0.05,0,0,0.05,49.900000000000006,0)" xlink:href="#I"/><use transform="matrix(0.05,0,0,0.05,61.900000000000006,0)" xlink:href="#G"/><use transform="matrix(0.05,0,0,0.05,72.85000000000001,0)" xlink:href="#C"/><use transform="matrix(0.05,0,0,0.05,77.85000000000001,0)" xlink:href="#A"/><use transform="matrix(0.05,0,0,0.05,91.85000000000001,0)" xlink:href="#v"/><use transform="matrix(0.05,0,0,0.05,104.80000000000001,0)" xlink:href="#y"/><use transform="matrix(0.05,0,0,0.05,114.80000000000001,0)" xlink:href="#H"/><use transform="matrix(0.05,0,0,0.05,126.80000000000001,0)" xlink:href="#w"/><use transform="matrix(0.05,0,0,0.05,138.8,0)" xlink:href="#v"/><use transform="matrix(0.05,0,0,0.05,151.75,0)" xlink:href="#x"/><use transform="matrix(0.05,0,0,0.05,164.7,0)" xlink:href="#w"/><use transform="matrix(0.05,0,0,0.05,176.7,0)" xlink:href="#x"/></g><path d="M153-248C145-148 188 4 80 4 36 3 13-21 6-62l32-5c4 25 16 42 43 43 27 0 39-20 39-49v-147H72v-28h81" id="J"/><g id="g"><use transform="matrix(0.05,0,0,0.05,0,0)" xlink:href="#D"/><use transform="matrix(0.05,0,0,0.05,12.950000000000001,0)" xlink:href="#w"/><use transform="matrix(0.05,0,0,0.05,24.950000000000003,0)" xlink:href="#J"/><use transform="matrix(0.05,0,0,0.05,33.95,0)" xlink:href="#w"/><use transform="matrix(0.05,0,0,0.05,45.95,0)" xlink:href="#z"/><use transform="matrix(0.05,0,0,0.05,58.900000000000006,0)" xlink:href="#G"/><use transform="matrix(0.05,0,0,0.05,69.85000000000001,0)" xlink:href="#C"/><use transform="matrix(0.05,0,0,0.05,74.85000000000001,0)" xlink:href="#A"/><use transform="matrix(0.05,0,0,0.05,88.85000000000001,0)" xlink:href="#v"/><use transform="matrix(0.05,0,0,0.05,101.80000000000001,0)" xlink:href="#y"/><use transform="matrix(0.05,0,0,0.05,111.80000000000001,0)" xlink:href="#H"/><use transform="matrix(0.05,0,0,0.05,123.80000000000001,0)" xlink:href="#w"/><use transform="matrix(0.05,0,0,0.05,135.8,0)" xlink:href="#v"/><use transform="matrix(0.05,0,0,0.05,148.75,0)" xlink:href="#x"/><use transform="matrix(0.05,0,0,0.05,161.7,0)" xlink:href="#w"/><use transform="matrix(0.05,0,0,0.05,173.7,0)" xlink:href="#x"/></g><g id="h"><use transform="matrix(0.05,0,0,0.05,0,0)" xlink:href="#H"/><use transform="matrix(0.05,0,0,0.05,12,0)" xlink:href="#w"/><use transform="matrix(0.05,0,0,0.05,24,0)" xlink:href="#v"/><use transform="matrix(0.05,0,0,0.05,36.95,0)" xlink:href="#x"/><use transform="matrix(0.05,0,0,0.05,49.900000000000006,0)" xlink:href="#y"/><use transform="matrix(0.05,0,0,0.05,59.900000000000006,0)" xlink:href="#F"/><use transform="matrix(0.05,0,0,0.05,71.9,0)" xlink:href="#z"/><use transform="matrix(0.05,0,0,0.05,84.85000000000001,0)" xlink:href="#z"/><use transform="matrix(0.05,0,0,0.05,97.80000000000001,0)" xlink:href="#w"/><use transform="matrix(0.05,0,0,0.05,109.80000000000001,0)" xlink:href="#I"/><use transform="matrix(0.05,0,0,0.05,121.80000000000001,0)" xlink:href="#G"/><use transform="matrix(0.05,0,0,0.05,132.75,0)" xlink:href="#C"/><use transform="matrix(0.05,0,0,0.05,137.75,0)" xlink:href="#A"/><use transform="matrix(0.05,0,0,0.05,151.75,0)" xlink:href="#v"/></g><g id="i"><use transform="matrix(0.05,0,0,0.05,0,0)" xlink:href="#H"/><use transform="matrix(0.05,0,0,0.05,12,0)" xlink:href="#w"/><use transform="matrix(0.05,0,0,0.05,24,0)" xlink:href="#v"/><use transform="matrix(0.05,0,0,0.05,36.95,0)" xlink:href="#x"/><use transform="matrix(0.05,0,0,0.05,49.900000000000006,0)" xlink:href="#y"/><use transform="matrix(0.05,0,0,0.05,59.900000000000006,0)" xlink:href="#D"/><use transform="matrix(0.05,0,0,0.05,72.85000000000001,0)" xlink:href="#w"/><use transform="matrix(0.05,0,0,0.05,84.85000000000001,0)" xlink:href="#J"/><use transform="matrix(0.05,0,0,0.05,93.85000000000001,0)" xlink:href="#w"/><use transform="matrix(0.05,0,0,0.05,105.85000000000001,0)" xlink:href="#z"/><use transform="matrix(0.05,0,0,0.05,118.80000000000001,0)" xlink:href="#G"/><use transform="matrix(0.05,0,0,0.05,129.75,0)" xlink:href="#C"/><use transform="matrix(0.05,0,0,0.05,134.75,0)" xlink:href="#A"/><use transform="matrix(0.05,0,0,0.05,148.75,0)" xlink:href="#v"/></g><g id="j"><use transform="matrix(0.05,0,0,0.05,0,0)" xlink:href="#F"/><use transform="matrix(0.05,0,0,0.05,12,0)" xlink:href="#z"/><use transform="matrix(0.05,0,0,0.05,24.950000000000003,0)" xlink:href="#z"/><use transform="matrix(0.05,0,0,0.05,37.900000000000006,0)" xlink:href="#w"/><use transform="matrix(0.05,0,0,0.05,49.900000000000006,0)" xlink:href="#I"/><use transform="matrix(0.05,0,0,0.05,61.900000000000006,0)" xlink:href="#G"/><use transform="matrix(0.05,0,0,0.05,72.85000000000001,0)" xlink:href="#w"/><use transform="matrix(0.05,0,0,0.05,84.85000000000001,0)" xlink:href="#x"/></g><g id="k"><use transform="matrix(0.05,0,0,0.05,0,0)" xlink:href="#F"/><use transform="matrix(0.05,0,0,0.05,12,0)" xlink:href="#z"/><use transform="matrix(0.05,0,0,0.05,24.950000000000003,0)" xlink:href="#z"/><use transform="matrix(0.05,0,0,0.05,37.900000000000006,0)" xlink:href="#w"/><use transform="matrix(0.05,0,0,0.05,49.900000000000006,0)" xlink:href="#I"/><use transform="matrix(0.05,0,0,0.05,61.900000000000006,0)" xlink:href="#G"/></g><g id="l"><use transform="matrix(0.05,0,0,0.05,0,0)" xlink:href="#D"/><use transform="matrix(0.05,0,0,0.05,12.950000000000001,0)" xlink:href="#w"/><use transform="matrix(0.05,0,0,0.05,24.950000000000003,0)" xlink:href="#J"/><use transform="matrix(0.05,0,0,0.05,33.95,0)" xlink:href="#w"/><use transform="matrix(0.05,0,0,0.05,45.95,0)" xlink:href="#z"/><use transform="matrix(0.05,0,0,0.05,58.900000000000006,0)" xlink:href="#G"/><use transform="matrix(0.05,0,0,0.05,69.85000000000001,0)" xlink:href="#w"/><use transform="matrix(0.05,0,0,0.05,81.85000000000001,0)" xlink:href="#x"/></g><path d="M30 0v-248h33v221h125V0H30" id="K"/><g id="m"><use transform="matrix(0.05,0,0,0.05,0,0)" xlink:href="#D"/><use transform="matrix(0.05,0,0,0.05,12.950000000000001,0)" xlink:href="#w"/><use transform="matrix(0.05,0,0,0.05,24.950000000000003,0)" xlink:href="#J"/><use transform="matrix(0.05,0,0,0.05,33.95,0)" xlink:href="#w"/><use transform="matrix(0.05,0,0,0.05,45.95,0)" xlink:href="#z"/><use transform="matrix(0.05,0,0,0.05,58.900000000000006,0)" xlink:href="#G"/><use transform="matrix(0.05,0,0,0.05,69.85000000000001,0)" xlink:href="#C"/><use transform="matrix(0.05,0,0,0.05,74.85000000000001,0)" xlink:href="#A"/><use transform="matrix(0.05,0,0,0.05,88.85000000000001,0)" xlink:href="#v"/><use transform="matrix(0.05,0,0,0.05,101.80000000000001,0)" xlink:href="#y"/><use transform="matrix(0.05,0,0,0.05,111.80000000000001,0)" xlink:href="#x"/><use transform="matrix(0.05,0,0,0.05,124.75,0)" xlink:href="#w"/><use transform="matrix(0.05,0,0,0.05,136.75,0)" xlink:href="#z"/><use transform="matrix(0.05,0,0,0.05,149.7,0)" xlink:href="#K"/><use transform="matrix(0.05,0,0,0.05,159.7,0)" xlink:href="#C"/><use transform="matrix(0.05,0,0,0.05,164.7,0)" xlink:href="#v"/><use transform="matrix(0.05,0,0,0.05,177.64999999999998,0)" xlink:href="#w"/><use transform="matrix(0.05,0,0,0.05,189.64999999999998,0)" xlink:href="#x"/></g><path d="M135-143c-3-34-86-38-87 0 15 53 115 12 119 90S17 21 10-45l28-5c4 36 97 45 98 0-10-56-113-15-118-90-4-57 82-63 122-42 12 7 21 19 24 35" id="L"/><path d="M84 4C-5 8 30-112 23-190h32v120c0 31 7 50 39 49 72-2 45-101 50-169h31l1 190h-30c-1-10 1-25-2-33-11 22-28 36-60 37" id="M"/><path d="M115-194c55 1 70 41 70 98S169 2 115 4C84 4 66-9 55-30l1 105H24l-1-265h31l2 30c10-21 28-34 59-34zm-8 174c40 0 45-34 45-75s-6-73-45-74c-42 0-51 32-51 76 0 43 10 73 51 73" id="N"/><path d="M24 0v-261h32V0H24" id="O"/><path d="M24-231v-30h32v30H24zM24 0v-190h32V0H24" id="P"/><path d="M100-194c63 0 86 42 84 106H49c0 40 14 67 53 68 26 1 43-12 49-29l28 8c-11 28-37 45-77 45C44 4 14-33 15-96c1-61 26-98 85-98zm52 81c6-60-76-77-97-28-3 7-6 17-6 28h103" id="Q"/><path d="M114-163C36-179 61-72 57 0H25l-1-190h30c1 12-1 29 2 39 6-27 23-49 58-41v29" id="R"/><g id="n"><use transform="matrix(0.05,0,0,0.05,0,0)" xlink:href="#L"/><use transform="matrix(0.05,0,0,0.05,9,0)" xlink:href="#M"/><use transform="matrix(0.05,0,0,0.05,19,0)" xlink:href="#N"/><use transform="matrix(0.05,0,0,0.05,29,0)" xlink:href="#N"/><use transform="matrix(0.05,0,0,0.05,39,0)" xlink:href="#O"/><use transform="matrix(0.05,0,0,0.05,42.95,0)" xlink:href="#P"/><use transform="matrix(0.05,0,0,0.05,46.900000000000006,0)" xlink:href="#Q"/><use transform="matrix(0.05,0,0,0.05,56.900000000000006,0)" xlink:href="#R"/></g><path d="M101-234c-31-9-42 10-38 44h38v23H63V0H32v-167H5v-23h27c-7-52 17-82 69-68v24" id="S"/><path d="M85-194c31 0 48 13 60 33l-1-100h32l1 261h-30c-2-10 0-23-3-31C134-8 116 4 85 4 32 4 16-35 15-94c0-66 23-100 70-100zm9 24c-40 0-46 34-46 75 0 40 6 74 45 74 42 0 51-32 51-76 0-42-9-74-50-73" id="T"/><g id="o"><use transform="matrix(0.05,0,0,0.05,0,0)" xlink:href="#R"/><use transform="matrix(0.05,0,0,0.05,5.95,0)" xlink:href="#Q"/><use transform="matrix(0.05,0,0,0.05,15.949999999999998,0)" xlink:href="#S"/><use transform="matrix(0.05,0,0,0.05,20.95,0)" xlink:href="#M"/><use transform="matrix(0.05,0,0,0.05,30.950000000000003,0)" xlink:href="#L"/><use transform="matrix(0.05,0,0,0.05,39.95,0)" xlink:href="#Q"/><use transform="matrix(0.05,0,0,0.05,49.95,0)" xlink:href="#T"/></g><path d="M141-36C126-15 110 5 73 4 37 3 15-17 15-53c-1-64 63-63 125-63 3-35-9-54-41-54-24 1-41 7-42 31l-33-3c5-37 33-52 76-52 45 0 72 20 72 64v82c-1 20 7 32 28 27v20c-31 9-61-2-59-35zM48-53c0 20 12 33 32 33 41-3 63-29 60-74-43 2-92-5-92 41" id="U"/><path d="M96-169c-40 0-48 33-48 73s9 75 48 75c24 0 41-14 43-38l32 2c-6 37-31 61-74 61-59 0-76-41-82-99-10-93 101-131 147-64 4 7 5 14 7 22l-32 3c-4-21-16-35-41-35" id="V"/><path d="M59-47c-2 24 18 29 38 22v24C64 9 27 4 27-40v-127H5v-23h24l9-43h21v43h35v23H59v120" id="W"/><g id="p"><use transform="matrix(0.05,0,0,0.05,0,0)" xlink:href="#U"/><use transform="matrix(0.05,0,0,0.05,10,0)" xlink:href="#V"/><use transform="matrix(0.05,0,0,0.05,19,0)" xlink:href="#V"/><use transform="matrix(0.05,0,0,0.05,28,0)" xlink:href="#Q"/><use transform="matrix(0.05,0,0,0.05,38,0)" xlink:href="#N"/><use transform="matrix(0.05,0,0,0.05,48,0)" xlink:href="#W"/><use transform="matrix(0.05,0,0,0.05,53,0)" xlink:href="#Q"/><use transform="matrix(0.05,0,0,0.05,63,0)" xlink:href="#T"/></g><path d="M140-251c81 0 123 46 123 126C263-53 228-8 163 1c7 30 30 48 69 40v23c-55 16-95-15-103-61C56-3 17-48 17-125c0-80 42-126 123-126zm0 227c63 0 89-41 89-101s-29-99-89-99c-61 0-89 39-89 99S79-25 140-24" id="X"/><path d="M232-93c-1 65-40 97-104 97C67 4 28-28 28-90v-158h33c8 89-33 224 67 224 102 0 64-133 71-224h33v155" id="Y"/><g id="q"><use transform="matrix(0.05,0,0,0.05,0,0)" xlink:href="#D"/><use transform="matrix(0.05,0,0,0.05,12.950000000000001,0)" xlink:href="#w"/><use transform="matrix(0.05,0,0,0.05,24.950000000000003,0)" xlink:href="#J"/><use transform="matrix(0.05,0,0,0.05,33.95,0)" xlink:href="#w"/><use transform="matrix(0.05,0,0,0.05,45.95,0)" xlink:href="#z"/><use transform="matrix(0.05,0,0,0.05,58.900000000000006,0)" xlink:href="#G"/><use transform="matrix(0.05,0,0,0.05,69.85000000000001,0)" xlink:href="#C"/><use transform="matrix(0.05,0,0,0.05,74.85000000000001,0)" xlink:href="#A"/><use transform="matrix(0.05,0,0,0.05,88.85000000000001,0)" xlink:href="#v"/><use transform="matrix(0.05,0,0,0.05,101.80000000000001,0)" xlink:href="#y"/><use transform="matrix(0.05,0,0,0.05,111.80000000000001,0)" xlink:href="#D"/><use transform="matrix(0.05,0,0,0.05,124.75,0)" xlink:href="#w"/><use transform="matrix(0.05,0,0,0.05,136.75,0)" xlink:href="#X"/><use transform="matrix(0.05,0,0,0.05,150.75,0)" xlink:href="#Y"/><use transform="matrix(0.05,0,0,0.05,163.7,0)" xlink:href="#w"/><use transform="matrix(0.05,0,0,0.05,175.7,0)" xlink:href="#H"/><use transform="matrix(0.05,0,0,0.05,187.7,0)" xlink:href="#G"/><use transform="matrix(0.05,0,0,0.05,198.64999999999998,0)" xlink:href="#w"/><use transform="matrix(0.05,0,0,0.05,210.64999999999998,0)" xlink:href="#x"/></g><g id="r"><use transform="matrix(0.05,0,0,0.05,0,0)" xlink:href="#F"/><use transform="matrix(0.05,0,0,0.05,12,0)" xlink:href="#z"/><use transform="matrix(0.05,0,0,0.05,24.950000000000003,0)" xlink:href="#z"/><use transform="matrix(0.05,0,0,0.05,37.900000000000006,0)" xlink:href="#w"/><use transform="matrix(0.05,0,0,0.05,49.900000000000006,0)" xlink:href="#I"/><use transform="matrix(0.05,0,0,0.05,61.900000000000006,0)" xlink:href="#G"/><use transform="matrix(0.05,0,0,0.05,72.85000000000001,0)" xlink:href="#y"/><use transform="matrix(0.05,0,0,0.05,82.85000000000001,0)" xlink:href="#D"/><use transform="matrix(0.05,0,0,0.05,95.80000000000001,0)" xlink:href="#w"/><use transform="matrix(0.05,0,0,0.05,107.80000000000001,0)" xlink:href="#J"/><use transform="matrix(0.05,0,0,0.05,116.80000000000001,0)" xlink:href="#w"/><use transform="matrix(0.05,0,0,0.05,128.8,0)" xlink:href="#z"/><use transform="matrix(0.05,0,0,0.05,141.75,0)" xlink:href="#G"/><use transform="matrix(0.05,0,0,0.05,152.7,0)" xlink:href="#C"/><use transform="matrix(0.05,0,0,0.05,157.7,0)" xlink:href="#A"/><use transform="matrix(0.05,0,0,0.05,171.7,0)" xlink:href="#v"/></g><g id="s"><use transform="matrix(0.05,0,0,0.05,0,0)" xlink:href="#x"/><use transform="matrix(0.05,0,0,0.05,12.950000000000001,0)" xlink:href="#w"/><use transform="matrix(0.05,0,0,0.05,24.950000000000003,0)" xlink:href="#z"/><use transform="matrix(0.05,0,0,0.05,37.900000000000006,0)" xlink:href="#K"/><use transform="matrix(0.05,0,0,0.05,47.900000000000006,0)" xlink:href="#C"/><use transform="matrix(0.05,0,0,0.05,52.900000000000006,0)" xlink:href="#v"/><use transform="matrix(0.05,0,0,0.05,65.85000000000001,0)" xlink:href="#w"/><use transform="matrix(0.05,0,0,0.05,77.85000000000001,0)" xlink:href="#y"/><use transform="matrix(0.05,0,0,0.05,87.85000000000001,0)" xlink:href="#D"/><use transform="matrix(0.05,0,0,0.05,100.80000000000001,0)" xlink:href="#w"/><use transform="matrix(0.05,0,0,0.05,112.80000000000001,0)" xlink:href="#J"/><use transform="matrix(0.05,0,0,0.05,121.80000000000001,0)" xlink:href="#w"/><use transform="matrix(0.05,0,0,0.05,133.8,0)" xlink:href="#z"/><use transform="matrix(0.05,0,0,0.05,146.75,0)" xlink:href="#G"/><use transform="matrix(0.05,0,0,0.05,157.7,0)" xlink:href="#C"/><use transform="matrix(0.05,0,0,0.05,162.7,0)" xlink:href="#A"/><use transform="matrix(0.05,0,0,0.05,176.7,0)" xlink:href="#v"/></g><g id="t"><use transform="matrix(0.05,0,0,0.05,0,0)" xlink:href="#z"/><use transform="matrix(0.05,0,0,0.05,12.950000000000001,0)" xlink:href="#A"/><use transform="matrix(0.05,0,0,0.05,26.950000000000003,0)" xlink:href="#D"/><use transform="matrix(0.05,0,0,0.05,39.900000000000006,0)" xlink:href="#D"/><use transform="matrix(0.05,0,0,0.05,52.85,0)" xlink:href="#w"/><use transform="matrix(0.05,0,0,0.05,64.85000000000001,0)" xlink:href="#z"/><use transform="matrix(0.05,0,0,0.05,77.80000000000001,0)" xlink:href="#G"/><use transform="matrix(0.05,0,0,0.05,88.75000000000001,0)" xlink:href="#C"/><use transform="matrix(0.05,0,0,0.05,93.75000000000001,0)" xlink:href="#A"/><use transform="matrix(0.05,0,0,0.05,107.75,0)" xlink:href="#v"/><use transform="matrix(0.05,0,0,0.05,120.7,0)" xlink:href="#y"/><use transform="matrix(0.05,0,0,0.05,130.70000000000002,0)" xlink:href="#H"/><use transform="matrix(0.05,0,0,0.05,142.70000000000002,0)" xlink:href="#w"/><use transform="matrix(0.05,0,0,0.05,154.70000000000002,0)" xlink:href="#v"/><use transform="matrix(0.05,0,0,0.05,167.65,0)" xlink:href="#x"/><use transform="matrix(0.05,0,0,0.05,180.6,0)" xlink:href="#w"/><use transform="matrix(0.05,0,0,0.05,192.6,0)" xlink:href="#x"/></g><path fill="#333" d="M185-189c-5-48-123-54-124 2 14 75 158 14 163 119 3 78-121 87-175 55-17-10-28-26-33-46l33-7c5 56 141 63 141-1 0-78-155-14-162-118-5-82 145-84 179-34 5 7 8 16 11 25" id="Z"/><path fill="#333" d="M30 0v-248h187v28H63v79h144v27H63v87h162V0H30" id="aa"/><path fill="#333" d="M190 0L58-211 59 0H30v-248h39L202-35l-2-213h31V0h-41" id="ab"/><path fill="#333" d="M30-248c118-7 216 8 213 122C240-48 200 0 122 0H30v-248zM63-27c89 8 146-16 146-99s-60-101-146-95v194" id="ac"/><path fill="#333" d="M-5 72V49h209v23H-5" id="ad"/><path fill="#333" d="M212-179c-10-28-35-45-73-45-59 0-87 40-87 99 0 60 29 101 89 101 43 0 62-24 78-52l27 14C228-24 195 4 139 4 59 4 22-46 18-125c-6-104 99-153 187-111 19 9 31 26 39 46" id="ae"/><path fill="#333" d="M140-251c81 0 123 46 123 126C263-46 219 4 140 4 59 4 17-45 17-125s42-126 123-126zm0 227c63 0 89-41 89-101s-29-99-89-99c-61 0-89 39-89 99S79-25 140-24" id="af"/><path fill="#333" d="M233-177c-1 41-23 64-60 70L243 0h-38l-65-103H63V0H30v-248c88 3 205-21 203 71zM63-129c60-2 137 13 137-47 0-61-80-42-137-45v92" id="ag"/><path fill="#333" d="M127-220V0H93v-220H8v-28h204v28h-85" id="ah"/><path fill="#333" d="M33 0v-248h34V0H33" id="ai"/><g id="u"><use transform="matrix(0.05185185185185186,0,0,0.05185185185185186,0,0)" xlink:href="#Z"/><use transform="matrix(0.05185185185185186,0,0,0.05185185185185186,12.444444444444446,0)" xlink:href="#aa"/><use transform="matrix(0.05185185185185186,0,0,0.05185185185185186,24.888888888888893,0)" xlink:href="#ab"/><use transform="matrix(0.05185185185185186,0,0,0.05185185185185186,38.31851851851852,0)" xlink:href="#ac"/><use transform="matrix(0.05185185185185186,0,0,0.05185185185185186,51.748148148148154,0)" xlink:href="#ad"/><use transform="matrix(0.05185185185185186,0,0,0.05185185185185186,62.11851851851853,0)" xlink:href="#ae"/><use transform="matrix(0.05185185185185186,0,0,0.05185185185185186,75.54814814814816,0)" xlink:href="#af"/><use transform="matrix(0.05185185185185186,0,0,0.05185185185185186,90.06666666666668,0)" xlink:href="#ag"/><use transform="matrix(0.05185185185185186,0,0,0.05185185185185186,103.49629629629631,0)" xlink:href="#ag"/><use transform="matrix(0.05185185185185186,0,0,0.05185185185185186,116.92592592592594,0)" xlink:href="#aa"/><use transform="matrix(0.05185185185185186,0,0,0.05185185185185186,129.37037037037038,0)" xlink:href="#ae"/><use transform="matrix(0.05185185185185186,0,0,0.05185185185185186,142.8,0)" xlink:href="#ah"/><use transform="matrix(0.05185185185185186,0,0,0.05185185185185186,154.15555555555557,0)" xlink:href="#ai"/><use transform="matrix(0.05185185185185186,0,0,0.05185185185185186,159.34074074074076,0)" xlink:href="#af"/><use transform="matrix(0.05185185185185186,0,0,0.05185185185185186,173.8592592592593,0)" xlink:href="#ab"/></g></defs></g></svg>